<?xml version="1.0" encoding="utf-8"?>
<!-- Generator: Adobe Illustrator 19.2.1, SVG Export Plug-In . SVG Version: 6.00 Build 0)  -->
<svg version="1.1" id="layer" xmlns="http://www.w3.org/2000/svg" xmlns:xlink="http://www.w3.org/1999/xlink" x="0px" y="0px"
	 viewBox="0 0 652 652" style="enable-background:new 0 0 652 652;" xml:space="preserve">
<path d="M145.3,271.4l0.8,4.6c0.6,4.2,0.9,8.5,0.8,12.8c0,9.5-1.1,18.9-3.4,28.1c-3,12.5-8.4,24.3-15.7,34.9
	c-8.4,12.1-20.6,24.1-38.4,33.7l-2.2,1.2l-2.2-1.2c-17.8-9.6-30-21.5-38.4-33.7c-7.3-10.6-12.6-22.4-15.7-34.9
	c-2.3-9.2-3.4-18.6-3.4-28.1c0-4.3,0.2-8.6,0.8-12.8l0.8-4.6c0.1-0.4,0.1-0.8,0-1.1c-0.1-0.4-0.2-0.7-0.5-1
	c-0.2-0.3-0.5-0.6-0.8-0.8c-0.3-0.2-0.7-0.3-1-0.4s-0.8,0-1.1,0s-0.7,0.2-1,0.5c-0.3,0.2-0.6,0.5-0.8,0.8c-0.2,0.3-0.3,0.7-0.4,1.1
	l-0.8,4.6c-0.6,4.5-0.9,9.1-0.9,13.7c0,9.9,1.2,19.8,3.6,29.4c3.2,13.2,8.8,25.6,16.5,36.8c8.9,12.8,21.8,25.4,40.4,35.4l3.5,1.9
	c0.4,0.2,0.9,0.3,1.4,0.3s0.9-0.1,1.4-0.3l3.5-1.9c18.6-10,31.5-22.6,40.4-35.4c7.7-11.1,13.3-23.6,16.5-36.7
	c2.4-9.6,3.6-19.5,3.6-29.4c0-4.6-0.3-9.2-0.9-13.7l-0.8-4.6c-0.1-0.4-0.2-0.7-0.4-1.1c-0.2-0.3-0.5-0.6-0.8-0.8
	c-0.3-0.2-0.7-0.4-1-0.5c-0.4-0.1-0.7-0.1-1.1,0c-0.4,0.1-0.7,0.2-1,0.4c-0.3,0.2-0.6,0.5-0.8,0.8c-0.2,0.3-0.4,0.7-0.5,1
	C145.3,270.6,145.3,271,145.3,271.4L145.3,271.4L145.3,271.4z" fill="white"/>
<path d="M44.8,268.3l42.5-13l43.4,13.3c0.7,0.2,1.5,0.1,2.2-0.2c0.7-0.4,1.2-1,1.4-1.7c0.2-0.7,0.1-1.5-0.2-2.2s-1-1.2-1.7-1.4
	l-44.2-13.5c-0.5-0.2-1.1-0.2-1.7,0l-43.3,13.2c-0.4,0.1-0.7,0.3-1,0.5c-0.3,0.2-0.5,0.5-0.7,0.9c-0.2,0.3-0.3,0.7-0.3,1.1
	c0,0.4,0,0.8,0.1,1.1c0.1,0.4,0.3,0.7,0.5,1s0.5,0.5,0.9,0.7c0.3,0.2,0.7,0.3,1.1,0.3C44.1,268.4,44.5,268.4,44.8,268.3L44.8,268.3
	L44.8,268.3z" fill="white"/>
<path d="M23.9,272.2L84.7,391c0.2,0.5,0.6,0.9,1,1.1c0.4,0.3,1,0.4,1.5,0.4c0.5,0,1-0.1,1.5-0.4c0.4-0.3,0.8-0.7,1.1-1.1l37.1-69.4
	l0.1-0.1l23.8-49.4c0.3-0.7,0.4-1.5,0.1-2.2c-0.3-0.7-0.8-1.3-1.5-1.6c-0.7-0.3-1.5-0.4-2.2-0.1c-0.7,0.2-1.3,0.8-1.6,1.4L121.9,319
	l-34.5,64.6l-58.4-114c-0.2-0.3-0.4-0.6-0.7-0.9c-0.3-0.2-0.6-0.4-1-0.6c-0.4-0.1-0.7-0.2-1.1-0.1c-0.4,0-0.7,0.1-1.1,0.3
	c-0.3,0.2-0.6,0.4-0.9,0.7c-0.2,0.3-0.4,0.6-0.5,1c-0.1,0.4-0.2,0.7-0.1,1.1C23.6,271.5,23.7,271.9,23.9,272.2L23.9,272.2z" fill="white"/>
<path d="M53,325.1h67.7c0.8,0,1.5-0.3,2-0.8c0.5-0.5,0.8-1.3,0.8-2c0-0.8-0.3-1.5-0.8-2c-0.5-0.5-1.3-0.8-2-0.8H53
	c-0.8,0-1.5,0.3-2,0.8c-0.5,0.5-0.8,1.3-0.8,2c0,0.8,0.3,1.5,0.8,2C51.5,324.8,52.2,325.1,53,325.1L53,325.1z M241.8,300.5h-44
	c-0.8,0-1.5,0.3-2,0.8s-0.8,1.3-0.8,2v35.3c0,0.8,0.3,1.5,0.8,2c0.5,0.5,1.3,0.8,2,0.8h44v6h-44c-1.2,0-2.3-0.2-3.4-0.7
	c-1.1-0.4-2.1-1.1-2.9-1.9s-1.5-1.8-1.9-2.9c-0.4-1.1-0.7-2.2-0.7-3.4v-35.3c0-1.2,0.2-2.3,0.7-3.4c0.4-1.1,1.1-2.1,1.9-2.9
	s1.8-1.5,2.9-1.9c1.1-0.4,2.2-0.7,3.4-0.7h44V300.5L241.8,300.5z M324.5,294.5v6h-42.4V318h34.1v6h-34.1v17.5h42.4v6h-48.4v-53
	H324.5z" fill="white"/>
<path d="M411.8,303.4V319c0,1.2-0.2,2.3-0.7,3.4c-0.4,1.1-1.1,2.1-1.9,2.9c-0.8,0.8-1.8,1.5-2.9,1.9c-1.1,0.4-2.2,0.7-3.4,0.7h-8.1
	l16.6,19.7h-7.9l-16.6-19.7h-19.5c-1,0-1.9-0.1-2.9-0.3v20h-6v-52.9H403c1.2,0,2.3,0.2,3.4,0.7c1.1,0.4,2.1,1.1,2.9,1.9
	c0.8,0.8,1.5,1.8,1.9,2.9C411.6,301.1,411.8,302.3,411.8,303.4L411.8,303.4L411.8,303.4z M367.7,321.8H403c0.4,0,0.7-0.1,1.1-0.2
	c0.3-0.1,0.7-0.3,0.9-0.6c0.3-0.3,0.5-0.6,0.6-0.9c0.1-0.3,0.2-0.7,0.2-1.1v-15.5c0-0.4-0.1-0.7-0.2-1.1c-0.1-0.3-0.3-0.7-0.6-0.9
	c-0.3-0.3-0.6-0.5-0.9-0.6c-0.3-0.1-0.7-0.2-1.1-0.2h-35.3c-0.8,0-1.5,0.3-2,0.8c-0.5,0.5-0.8,1.3-0.8,2V319c0,0.4,0.1,0.7,0.2,1.1
	c0.1,0.3,0.4,0.7,0.6,0.9c0.3,0.3,0.6,0.5,0.9,0.6C366.9,321.7,367.3,321.8,367.7,321.8L367.7,321.8z" fill="white"/>
<path d="M443.5,294.5h53v6H473v47.1h-6v-47.1h-23.6V294.5z M528.6,347.5v-53h6v53H528.6z M614.2,294.5h7.7L599.7,321l22.2,26.5h-7.7
	L594.5,324h-17.1v23.5h-6v-53h6V318h17.1L614.2,294.5z" fill="white"/>
</svg>
