<?xml version="1.0" encoding="utf-8"?>
<!-- Generator: Adobe Illustrator 16.0.0, SVG Export Plug-In . SVG Version: 6.00 Build 0)  -->
<!DOCTYPE svg PUBLIC "-//W3C//DTD SVG 1.1//EN" "http://www.w3.org/Graphics/SVG/1.1/DTD/svg11.dtd">
<svg version="1.1" id="Layer_1" xmlns="http://www.w3.org/2000/svg" xmlns:xlink="http://www.w3.org/1999/xlink" x="0px" y="0px"
	 width="200.76px" height="53.597px" viewBox="0 0 996.76 234.597" enable-background="new 0 0 996.76 234.597"
	 xml:space="preserve" style="fill: white; width: 200px; height: 53px;"
>
<g>
	<path d="M74.029,108.704c-5.974,0-10.818,4.843-10.818,10.817c0,5.973,4.844,10.817,10.818,10.817
		c5.974,0,10.817-4.845,10.817-10.817C84.846,113.547,80.002,108.704,74.029,108.704"/>
	<path d="M156.167,130.339c5.974,0,10.817-4.845,10.817-10.817c0-5.975-4.844-10.817-10.817-10.817
		c-5.975,0-10.818,4.843-10.818,10.817C145.349,125.494,150.193,130.339,156.167,130.339"/>
	<path d="M234.596,119.471C234.596,53.488,182.08,0,117.297,0C52.516,0,0,53.488,0,119.471c0,54.892,36.351,101.133,85.87,115.126
		c9.687-23.91,16.396-53.574,19.251-82.884c-47.042-2.031-83.404-15.673-83.404-32.191c0-11.497,17.612-21.598,44.167-27.362
		l14.244-48.356l13.051,44.314c3.888-0.35,7.877-0.609,11.942-0.789c3.988-0.167,8.053-0.257,12.176-0.257
		c4.125,0,8.189,0.09,12.178,0.257c4.064,0.18,8.053,0.439,11.941,0.789l13.05-44.314l14.243,48.356
		c26.556,5.765,44.168,15.865,44.168,27.362c0,16.519-36.362,30.16-83.403,32.191c2.854,29.31,9.562,58.974,19.25,82.884
		C198.244,220.604,234.596,174.362,234.596,119.471"/>
</g>
<g>
	<path d="M296.725,172.427V60.072H338.2c34.288,0,55.519,21.066,55.519,56.122c0,35.111-21.231,56.232-55.464,56.232H296.725z
		 M337.212,149.276c18.927,0,29.295-8.778,29.295-33.082c0-24.193-10.368-32.971-29.679-32.971h-12.947v66.053H337.212z"/>
	<path d="M409.521,60.072h78.342v22.054h-51.187v23.042h47.181v22.108h-47.181v23.097h51.187v22.054h-78.342V60.072z"/>
	<path d="M552.874,95.567h0.877l20.737-35.495h30.393l-33.903,56.178l35.002,56.177h-31.161l-21.067-35.879h-0.877l-21.067,35.879
		h-30.941l34.838-56.177l-33.96-56.178h30.613L552.874,95.567z"/>
	<path d="M669.619,142.363h0.932l25.126-82.291h30.393l-37.907,112.354h-36.155L614.099,60.072h30.394L669.619,142.363z"/>
	<path d="M737.866,65.503c0-7.078,6.199-12.781,13.771-12.781c7.624,0,13.769,5.703,13.769,12.781
		c0,7.077-6.145,12.838-13.769,12.838C744.065,78.341,737.866,72.58,737.866,65.503z M738.195,88.161h26.827v84.266h-26.827V88.161z
		"/>
	<path d="M778.794,130.623c0-26.114,16.349-43.559,41.805-43.559c23.918,0,40.815,15.25,40.815,43.01v6.693h-56.178v0.712
		c0,10.314,6.365,17.173,16.679,17.173c7.021,0,12.508-3.018,14.592-8.613l24.633,0.714c-3.071,16.568-17.61,27.266-39.72,27.266
		C794.923,174.019,778.794,157.615,778.794,130.623z M836.451,121.188c-0.108-8.613-6.471-14.759-15.304-14.759
		c-8.889,0-15.527,6.365-15.911,14.759H836.451z"/>
	<path d="M868.11,88.161h26.937l11.357,53.982h0.712l12.181-53.982h26.276l12.509,53.599h0.713l11.027-53.599h26.938l-22.001,84.266
		h-28.69l-13.167-49.1h-0.933l-13.167,49.1h-28.746L868.11,88.161z"/>
</g>
</svg>
