<svg width="151" height="38" viewBox="18 -2 151 42" fill="none" xmlns="http://www.w3.org/2000/svg">
<g filter="url(#filter0_d_1733_142)">
<path fill-rule="evenodd" clip-rule="evenodd" d="M32.204 4.00677H9.4333C6.87998 4.00677 4.81026 6.0766 4.81026 8.6299C4.81026 11.1832 6.87998 13.2529 9.4333 13.2529H21.043L2.35428 31.9419C0.548574 33.7469 0.548574 36.6742 2.35428 38.4798C4.15957 40.2851 7.08678 40.2851 8.89207 38.4798L27.5807 19.791V31.4005C27.5807 33.9537 29.6506 36.0236 32.204 36.0236C34.7572 36.0236 36.827 33.9537 36.827 31.4005V8.6299C36.827 6.0766 34.7572 4.00677 32.204 4.00677Z" fill="black"/>
<path fill-rule="evenodd" clip-rule="evenodd" d="M45.5113 35.827H68.282C70.8352 35.827 72.9051 33.7572 72.9051 31.204C72.9051 28.6506 70.8352 26.5807 68.282 26.5807H56.6723L75.3611 7.89208C77.1666 6.08678 77.1666 3.15958 75.3611 1.35427C73.5557 -0.451425 70.6286 -0.451425 68.8233 1.35427L50.1343 20.043V8.4333C50.1343 5.87998 48.0647 3.81026 45.5113 3.81026C42.9579 3.81026 40.8882 5.87998 40.8882 8.4333V31.204C40.8882 33.7572 42.9579 35.827 45.5113 35.827Z" fill="#FF7900"/>
<path fill-rule="evenodd" clip-rule="evenodd" d="M93.2294 15.435C95.833 15.435 96.8117 13.1955 96.8117 10.9748C96.8117 8.642 95.833 6.40248 93.2294 6.40248C90.6261 6.40248 89.6474 8.6419 89.6474 10.9748C89.6474 13.1954 90.6261 15.435 93.2294 15.435ZM93.2294 3.93921C97.3102 3.93921 99.7105 7.01836 99.7105 10.9748C99.7105 14.8191 97.3102 17.8983 93.2294 17.8983C89.1488 17.8983 86.7485 14.8191 86.7485 10.9748C86.7485 7.01836 89.1488 3.93921 93.2294 3.93921ZM100.708 8.19042H103.133V9.99314H103.169C103.636 8.77262 104.893 7.9275 106.133 7.9275C106.313 7.9275 106.528 7.96529 106.69 8.02162V10.5001C106.456 10.4437 106.079 10.4062 105.774 10.4062C103.905 10.4062 103.259 11.8144 103.259 13.5233V17.8983H100.708V8.19042ZM114.493 13.0135C114.018 13.3976 113.028 13.416 112.158 13.5624C111.288 13.7269 110.496 14.0014 110.496 14.9528C110.496 15.9224 111.307 16.1602 112.218 16.1602C114.413 16.1602 114.493 14.5503 114.493 13.9832V13.0135ZM108.004 11.0926C108.162 8.65944 110.516 7.9275 112.811 7.9275C114.848 7.9275 117.302 8.34816 117.302 10.6168V15.5384C117.302 16.398 117.4 17.2577 117.658 17.6421H114.809C114.71 17.3493 114.631 17.0384 114.611 16.7274C113.721 17.5872 112.416 17.8983 111.169 17.8983C109.23 17.8983 107.687 17.0018 107.687 15.0625C107.687 12.922 109.428 12.4097 111.169 12.1901C112.89 11.9523 114.493 12.0072 114.493 10.946C114.493 9.83022 113.662 9.66549 112.672 9.66549C111.604 9.66549 110.912 10.068 110.813 11.0926H108.004ZM118.655 8.19042H121.153V9.54247H121.208C121.874 8.45336 123.022 7.9275 124.132 7.9275C126.926 7.9275 127.629 9.52362 127.629 11.9272V17.8983H125.001V12.4154C125.001 10.8193 124.539 10.0306 123.318 10.0306C121.893 10.0306 121.282 10.8383 121.282 12.8097V17.8983H118.655V8.19042ZM135.972 13.0351C135.972 11.4222 135.409 9.98207 133.621 9.98207C132.066 9.98207 131.386 11.3263 131.386 12.8046C131.386 14.2254 131.93 15.7807 133.621 15.7807C135.195 15.7807 135.972 14.4557 135.972 13.0351ZM138.596 17.4895C138.596 19.1216 138.013 21.8865 133.387 21.8865C131.405 21.8865 129.092 20.9648 128.956 18.6991H131.697C131.949 19.7166 132.785 20.0625 133.757 20.0625C135.292 20.0625 135.992 19.0255 135.972 17.6047V16.2991H135.934C135.331 17.3359 134.126 17.8354 132.921 17.8354C129.908 17.8354 128.626 15.5696 128.626 12.8431C128.626 10.27 130.122 7.9276 132.94 7.9276C134.262 7.9276 135.273 8.36929 135.934 9.52141H135.972V8.19631H138.596V17.4895ZM146.804 11.8974C146.553 10.5801 145.953 9.88515 144.619 9.88515C142.88 9.88515 142.377 11.1657 142.338 11.8974H146.804ZM142.338 13.5439C142.416 15.1905 143.266 15.9406 144.794 15.9406C145.895 15.9406 146.785 15.3001 146.958 14.7147H149.375C148.602 16.9469 146.958 17.8983 144.697 17.8983C141.546 17.8983 139.593 15.8492 139.593 12.9218C139.593 10.0864 141.662 7.9275 144.697 7.9275C148.099 7.9275 149.742 10.635 149.549 13.544L142.338 13.5439ZM93.2978 31.486H93.3366L96.4094 21.8865H100.708V35.8455H97.8487V25.9529H97.8097L94.4061 35.8455H92.0529L88.6496 26.0506H88.6105V35.8455H85.7515V21.8865H90.0498L93.2978 31.486ZM107.678 33.8879C109.485 33.8879 110.026 32.3694 110.026 30.8693C110.026 29.3508 109.485 27.8324 107.678 27.8324C105.888 27.8324 105.348 29.3508 105.348 30.8693C105.348 32.3694 105.888 33.8879 107.678 33.8879ZM107.678 25.8748C110.716 25.8748 112.672 27.8508 112.672 30.8693C112.672 33.8696 110.716 35.8455 107.678 35.8455C104.659 35.8455 102.702 33.8696 102.702 30.8693C102.702 27.8508 104.659 25.8748 107.678 25.8748ZM113.669 26.1377H116.167V27.4898H116.223C116.889 26.401 118.036 25.8748 119.146 25.8748C121.94 25.8748 122.643 27.4709 122.643 29.8746V35.8455H120.016V30.3626C120.016 28.7667 119.553 27.9781 118.332 27.9781C116.907 27.9781 116.297 28.7855 116.297 30.7569V35.8455H113.67L113.669 26.1377ZM130.851 29.8449C130.6 28.5275 130 27.8324 128.666 27.8324C126.927 27.8324 126.424 29.1132 126.385 29.8449H130.851ZM126.385 31.4915C126.462 33.1376 127.313 33.8879 128.84 33.8879C129.942 33.8879 130.831 33.2475 131.005 32.662H133.422C132.649 34.894 131.005 35.8455 128.744 35.8455C125.593 35.8455 123.64 33.7962 123.64 30.8691C123.64 28.0339 125.709 25.8748 128.744 25.8748C132.146 25.8748 133.789 28.5824 133.596 31.4913L126.385 31.4915ZM139.526 36.667C138.944 38.2059 138.024 38.8368 136.183 38.8368C135.639 38.8368 135.094 38.7995 134.55 38.7438V36.5743C135.057 36.6114 135.583 36.6856 136.108 36.667C137.028 36.5743 137.329 35.6287 137.028 34.8684L133.611 25.8748H136.465L138.662 32.4393H138.7L140.822 25.8748H143.582L139.526 36.667Z" fill="white"/>
</g>
<defs>
<filter id="filter0_d_1733_142" x="0.356223" y="0" width="149.852" height="41.1214" filterUnits="userSpaceOnUse" color-interpolation-filters="sRGB">
<feFlood flood-opacity="0" result="BackgroundImageFix"/>
<feColorMatrix in="SourceAlpha" type="matrix" values="0 0 0 0 0 0 0 0 0 0 0 0 0 0 0 0 0 0 127 0" result="hardAlpha"/>
<feOffset dy="0.643777"/>
<feGaussianBlur stdDeviation="0.321888"/>
<feComposite in2="hardAlpha" operator="out"/>
<feColorMatrix type="matrix" values="0 0 0 0 0 0 0 0 0 0 0 0 0 0 0 0 0 0 0.25 0"/>
<feBlend mode="normal" in2="BackgroundImageFix" result="effect1_dropShadow_1733_142"/>
<feBlend mode="normal" in="SourceGraphic" in2="effect1_dropShadow_1733_142" result="shape"/>
</filter>
</defs>
</svg>
