<?xml version="1.0" encoding="UTF-8"?>
<!DOCTYPE svg  PUBLIC '-//W3C//DTD SVG 1.1//EN'  'http://www.w3.org/Graphics/SVG/1.1/DTD/svg11.dtd'>
<svg clip-rule="evenodd" fill-rule="evenodd" stroke-linejoin="round" stroke-miterlimit="2" version="1.1" viewBox="0 0 412 412" xml:space="preserve" xmlns="http://www.w3.org/2000/svg"><g transform="translate(-.75957 -.73978)"><rect x=".76" y=".74" width="411.11" height="411.11" fill="none"/><clipPath id="a"><rect x=".76" y=".74" width="411.11" height="411.11"/></clipPath><g clip-path="url(#a)"><g transform="matrix(4.1667 0 0 4.1667 -1.6457 -1.6028)"><path d="m50.093 0.74c27.228 0 49.334 22.105 49.334 49.333s-22.106 49.334-49.334 49.334-49.333-22.106-49.333-49.334 22.105-49.333 49.333-49.333zm13.476 35.742 0.262 0.336c0.13 0.168 0.257 0.332 0.369 0.482 0.1 0.2 0.3 0.4 0.4 0.7 0.175 0.263 0.331 0.525 0.484 0.788l0.132 0.224c0.153 0.263 0.309 0.526 0.484 0.788 0.1 0.3 0.3 0.6 0.4 0.9 0.4 0.8 0.7 1.6 0.8 2.5 0.1 0.2 0.1 0.4 0.1 0.5 0.1 0.2 0.1 0.5 0.1 0.8 0.1 0.9 0 1.7-0.1 2.6-0.037 0.15-0.075 0.286-0.112 0.418l-0.075 0.264c-0.038 0.132-0.075 0.268-0.113 0.418-0.1 0.3-0.2 0.7-0.4 1.1-0.3 0.7-0.7 1.4-1.1 2.1-0.1 0.2-0.3 0.5-0.5 0.8s-0.4 0.5-0.5 0.8c-0.2 0.3-0.5 0.6-0.7 0.9s-0.4 0.6-0.7 0.9c-0.3 0.4-0.7 0.8-1 1.2-0.2 0.2-0.4 0.5-0.7 0.7-0.2 0.2-0.4 0.5-0.7 0.7-0.3 0.3-0.6 0.6-0.9 0.8l-0.6 0.5c-0.1 0.1-0.2 0.1-0.3 0.1h-4.4v5.6h5.5c1.2 0 2.4-0.4 3.3-1.2 0.3-0.3 1.7-1.5 3.4-3.3 0.1-0.1 0.1-0.1 0.2-0.1l15.2-4.4c0.6-0.3 0.8-0.1 0.8 0.2v3.2c0 0.2-0.1 0.3-0.3 0.4-1 0.4-4.5 2-5.9 4-3.7 5.1-6.5 12.4-12.7 12.4h-26.1c-9.2 0-16.7-7.5-16.7-16.8v-0.3c0-0.2 0.2-0.4 0.4-0.4h14.7c0.3 0 0.5 0.3 0.5 0.5-0.1 0.9 0.1 1.9 0.5 2.8 0.9 1.8 2.7 2.8 4.6 2.8h7.2v-5.6h-7.1c-0.4 0-0.6-0.4-0.4-0.7 0.1-0.1 0.2-0.2 0.3-0.4 0.7-1 1.6-2.4 2.6-4.1 0.7-1.1 1.3-2.4 1.8-3.6 0.1-0.2 0.2-0.4 0.3-0.7 0.1-0.4 0.3-0.8 0.4-1.1l0.3-0.9c0.2-1 0.3-2.1 0.3-3.3 0-0.4 0-0.9-0.1-1.4 0-0.219-0.019-0.438-0.041-0.656l-0.018-0.188c-0.022-0.219-0.041-0.437-0.041-0.656 0-0.4-0.1-0.9-0.2-1.3-0.1-0.7-0.2-1.3-0.4-2l-0.1-0.2c-0.1-0.4-0.2-0.9-0.4-1.3-0.4-1.4-0.9-2.8-1.4-4l-0.6-1.5c-0.3-0.7-0.6-1.4-0.9-2-0.1-0.3-0.3-0.5-0.4-0.8s-0.3-0.6-0.4-0.9l-0.3-0.6-0.9-1.6c-0.1-0.2 0.1-0.5 0.3-0.4l5.5 1.5 0.7 0.2 0.8 0.2 0.3 0.1v-3.3c0-1.6 1.3-2.9 2.8-2.9 0.8 0 1.5 0.3 2 0.8s0.8 1.2 0.8 2v4.8l0.6 0.2s0.1 0 0.1 0.1c0.1 0.1 0.3 0.3 0.6 0.5 0.2 0.2 0.4 0.4 0.7 0.6 0.5 0.4 1.2 1 1.9 1.6 0.2 0.2 0.4 0.3 0.5 0.5 0.9 0.8 1.9 1.8 2.9 2.9 0.3 0.3 0.5 0.6 0.8 0.9s0.5 0.7 0.8 1c0.113 0.15 0.239 0.314 0.369 0.482zm-38.869 15.318 0.2-0.3 13-20.3c0.2-0.3 0.6-0.3 0.8 0.1 2.2 4.9 4 10.9 3.2 14.7-0.4 1.6-1.4 3.7-2.6 5.6-0.1 0.3-0.3 0.6-0.5 0.8-0.1 0.1-0.2 0.2-0.4 0.2h-13.4c-0.3-0.1-0.5-0.5-0.3-0.8z"/></g></g></g></svg>
