<?xml version="1.0" ?><!DOCTYPE svg  PUBLIC '-//W3C//DTD SVG 1.1//EN'  'http://www.w3.org/Graphics/SVG/1.1/DTD/svg11.dtd'><svg height="100%" style="fill-rule:evenodd;clip-rule:evenodd;stroke-linejoin:round;stroke-miterlimit:2;" version="1.1" viewBox="0 0 412 412" width="100%" xml:space="preserve" xmlns="http://www.w3.org/2000/svg" xmlns:serif="http://www.serif.com/" xmlns:xlink="http://www.w3.org/1999/xlink"><g id="Artboard1" transform="matrix(1,0,0,1,-0.75957,-0.739775)"><rect height="411.112" style="fill:none;" width="411.112" x="0.76" y="0.74"/><clipPath id="_clip1"><rect height="411.112" width="411.112" x="0.76" y="0.74"/></clipPath><g clip-path="url(#_clip1)"><g transform="matrix(4.16667,0,0,4.16667,-1.64573,-1.60285)"><path d="M50.093,0.74C77.321,0.74 99.427,22.845 99.427,50.073C99.427,77.301 77.321,99.407 50.093,99.407C22.865,99.407 0.76,77.301 0.76,50.073C0.76,22.845 22.865,0.74 50.093,0.74ZM63.569,36.482L63.831,36.818C63.961,36.986 64.088,37.15 64.2,37.3C64.3,37.5 64.5,37.7 64.6,38C64.775,38.263 64.931,38.525 65.084,38.788L65.216,39.012C65.369,39.275 65.525,39.538 65.7,39.8C65.8,40.1 66,40.4 66.1,40.7C66.5,41.5 66.8,42.3 66.9,43.2C67,43.4 67,43.6 67,43.7C67.1,43.9 67.1,44.2 67.1,44.5C67.2,45.4 67.1,46.2 67,47.1C66.963,47.25 66.925,47.386 66.888,47.518L66.813,47.782C66.775,47.914 66.738,48.05 66.7,48.2C66.6,48.5 66.5,48.9 66.3,49.3C66,50 65.6,50.7 65.2,51.4C65.1,51.6 64.9,51.9 64.7,52.2C64.5,52.5 64.3,52.7 64.2,53C64,53.3 63.7,53.6 63.5,53.9C63.3,54.2 63.1,54.5 62.8,54.8C62.5,55.2 62.1,55.6 61.8,56C61.6,56.2 61.4,56.5 61.1,56.7C60.9,56.9 60.7,57.2 60.4,57.4C60.1,57.7 59.8,58 59.5,58.2L58.9,58.7C58.8,58.8 58.7,58.8 58.6,58.8L54.2,58.8L54.2,64.4L59.7,64.4C60.9,64.4 62.1,64 63,63.2C63.3,62.9 64.7,61.7 66.4,59.9C66.5,59.8 66.5,59.8 66.6,59.8L81.8,55.4C82.4,55.1 82.6,55.3 82.6,55.6L82.6,58.8C82.6,59 82.5,59.1 82.3,59.2C81.3,59.6 77.8,61.2 76.4,63.2C72.7,68.3 69.9,75.6 63.7,75.6L37.6,75.6C28.4,75.6 20.9,68.1 20.9,58.8L20.9,58.5C20.9,58.3 21.1,58.1 21.3,58.1L36,58.1C36.3,58.1 36.5,58.4 36.5,58.6C36.4,59.5 36.6,60.5 37,61.4C37.9,63.2 39.7,64.2 41.6,64.2L48.8,64.2L48.8,58.6L41.7,58.6C41.3,58.6 41.1,58.2 41.3,57.9C41.4,57.8 41.5,57.7 41.6,57.5C42.3,56.5 43.2,55.1 44.2,53.4C44.9,52.3 45.5,51 46,49.8C46.1,49.6 46.2,49.4 46.3,49.1C46.4,48.7 46.6,48.3 46.7,48C46.8,47.7 46.9,47.4 47,47.1C47.2,46.1 47.3,45 47.3,43.8C47.3,43.4 47.3,42.9 47.2,42.4C47.2,42.181 47.181,41.962 47.159,41.744L47.141,41.556C47.119,41.337 47.1,41.119 47.1,40.9C47.1,40.5 47,40 46.9,39.6C46.8,38.9 46.7,38.3 46.5,37.6L46.4,37.4C46.3,37 46.2,36.5 46,36.1C45.6,34.7 45.1,33.3 44.6,32.1C44.4,31.6 44.2,31.1 44,30.6C43.7,29.9 43.4,29.2 43.1,28.6C43,28.3 42.8,28.1 42.7,27.8C42.6,27.5 42.4,27.2 42.3,26.9C42.2,26.7 42.1,26.5 42,26.3L41.1,24.7C41,24.5 41.2,24.2 41.4,24.3L46.9,25.8L47.6,26L48.4,26.2L48.7,26.3L48.7,23C48.7,21.4 50,20.1 51.5,20.1C52.3,20.1 53,20.4 53.5,20.9C54,21.4 54.3,22.1 54.3,22.9L54.3,27.7L54.9,27.9C54.9,27.9 55,27.9 55,28C55.1,28.1 55.3,28.3 55.6,28.5C55.8,28.7 56,28.9 56.3,29.1C56.8,29.5 57.5,30.1 58.2,30.7C58.4,30.9 58.6,31 58.7,31.2C59.6,32 60.6,33 61.6,34.1C61.9,34.4 62.1,34.7 62.4,35C62.7,35.3 62.9,35.7 63.2,36C63.313,36.15 63.439,36.314 63.569,36.482ZM24.7,51.8L24.9,51.5L37.9,31.2C38.1,30.9 38.5,30.9 38.7,31.3C40.9,36.2 42.7,42.2 41.9,46C41.5,47.6 40.5,49.7 39.3,51.6C39.2,51.9 39,52.2 38.8,52.4C38.7,52.5 38.6,52.6 38.4,52.6L25,52.6C24.7,52.5 24.5,52.1 24.7,51.8Z"/></g></g></g></svg>