<svg width="150" height="60" viewBox="0 0 932 256" style="height: 60px; width:auto" fill="none" xmlns="http://www.w3.org/2000/svg">
<g filter="url(#filter0_d_1715_13021)">
<path fill-rule="evenodd" clip-rule="evenodd" d="M197.881 24.8955H56.3989C40.5343 24.8955 27.6744 37.756 27.6744 53.6205C27.6744 69.4851 40.5343 82.345 56.3989 82.345H128.534L12.4146 198.466C1.19515 209.681 1.19515 227.869 12.4146 239.088C23.6315 250.305 41.8192 250.305 53.0361 239.088L169.155 122.968V195.102C169.155 210.966 182.016 223.827 197.881 223.827C213.745 223.827 226.605 210.966 226.605 195.102V53.6205C226.605 37.756 213.745 24.8955 197.881 24.8955Z" fill="black"/>
<path fill-rule="evenodd" clip-rule="evenodd" d="M280.564 222.605H422.046C437.91 222.605 450.771 209.745 450.771 193.881C450.771 178.016 437.91 165.155 422.046 165.155H349.911L466.031 49.0361C477.249 37.8192 477.249 19.6315 466.031 8.41456C454.813 -2.80485 436.626 -2.80485 425.409 8.41456L309.288 124.534V52.3989C309.288 36.5343 296.429 23.6744 280.564 23.6744C264.699 23.6744 251.839 36.5343 251.839 52.3989V193.881C251.839 209.745 264.699 222.605 280.564 222.605Z" fill="#FF7900"/>
<path fill-rule="evenodd" clip-rule="evenodd" d="M577.051 95.9025C593.228 95.9025 599.309 81.9882 599.309 68.1898C599.309 53.6956 593.228 39.7807 577.051 39.7807C560.876 39.7807 554.795 53.695 554.795 68.1898C554.795 81.9876 560.876 95.9025 577.051 95.9025ZM577.051 24.4756C602.406 24.4756 617.32 43.6074 617.32 68.1898C617.32 92.0758 602.406 111.208 577.051 111.208C551.697 111.208 536.783 92.0758 536.783 68.1898C536.783 43.6074 551.697 24.4756 577.051 24.4756ZM623.515 50.8898H638.584V62.0907H638.807C641.71 54.5072 649.523 49.2562 657.225 49.2562C658.342 49.2562 659.681 49.491 660.686 49.841V65.2403C659.234 64.8902 656.89 64.6573 654.993 64.6573C643.385 64.6573 639.366 73.4067 639.366 84.0246V111.208H623.515V50.8898ZM709.167 80.857C706.217 83.244 700.069 83.358 694.662 84.2674C689.254 85.2896 684.337 86.9952 684.337 92.9066C684.337 98.9313 689.375 100.409 695.031 100.409C708.674 100.409 709.167 90.4056 709.167 86.8824V80.857ZM668.848 68.9221C669.833 53.804 684.461 49.2562 698.717 49.2562C711.377 49.2562 726.62 51.8699 726.62 65.9657V96.545C726.62 101.886 727.234 107.228 728.833 109.616H711.133C710.517 107.797 710.027 105.865 709.903 103.933C704.372 109.275 696.261 111.208 688.516 111.208C676.471 111.208 666.881 105.638 666.881 93.5886C666.881 80.2889 677.7 77.1058 688.516 75.741C699.209 74.2635 709.167 74.6049 709.167 68.0114C709.167 61.0784 704.004 60.0549 697.857 60.0549C691.22 60.0549 686.92 62.5559 686.304 68.9221H668.848ZM735.028 50.8898H750.547V59.2905H750.893C755.031 52.5235 762.16 49.2562 769.056 49.2562C786.416 49.2562 790.784 59.1734 790.784 74.1074V111.208H774.46V77.1412C774.46 67.224 771.585 62.3236 763.999 62.3236C755.146 62.3236 751.353 67.3417 751.353 79.5907V111.208H735.028L735.028 50.8898ZM842.627 80.9914C842.627 70.9702 839.125 62.0219 828.016 62.0219C818.354 62.0219 814.128 70.3742 814.128 79.5591C814.128 88.3872 817.51 98.051 828.016 98.051C837.799 98.051 842.627 89.8183 842.627 80.9914ZM858.931 108.668C858.931 118.809 855.307 135.988 826.566 135.988C814.249 135.988 799.879 130.261 799.033 116.184H816.06C817.629 122.506 822.823 124.655 828.861 124.655C838.402 124.655 842.748 118.212 842.627 109.384V101.272H842.386C838.644 107.714 831.155 110.817 823.668 110.817C804.95 110.817 796.979 96.7389 796.979 79.7983C796.979 63.8111 806.278 49.2568 823.789 49.2568C832.001 49.2568 838.28 52.0012 842.386 59.1597H842.627V50.9264H858.931V108.668ZM909.928 73.9228C908.367 65.7377 904.643 61.4197 896.354 61.4197C885.544 61.4197 882.422 69.3762 882.18 73.9228H909.928ZM882.18 84.1528C882.662 94.3835 887.947 99.0441 897.436 99.0441C904.282 99.0441 909.808 95.0643 910.887 91.4272H925.903C921.097 105.297 910.887 111.208 896.835 111.208C877.258 111.208 865.126 98.4766 865.126 80.2877C865.126 62.6699 877.978 49.2562 896.836 49.2562C917.975 49.2562 928.184 66.0785 926.982 84.1534L882.18 84.1528ZM577.476 195.633H577.717L596.809 135.988H623.515V222.72H605.752V161.254H605.51L584.362 222.72H569.741L548.595 161.861H548.352V222.72H530.588V135.988H557.295L577.476 195.633ZM666.823 210.557C678.055 210.557 681.414 201.122 681.414 191.801C681.414 182.366 678.055 172.932 666.823 172.932C655.706 172.932 652.349 182.366 652.349 191.801C652.349 201.122 655.706 210.557 666.823 210.557ZM666.823 160.769C685.698 160.769 697.857 173.046 697.857 191.801C697.857 210.443 685.698 222.72 666.823 222.72C648.065 222.72 635.905 210.443 635.905 191.801C635.905 173.046 648.065 160.769 666.823 160.769ZM704.052 162.402H719.571V170.803H719.918C724.055 164.038 731.184 160.769 738.08 160.769C755.44 160.769 759.808 170.686 759.808 185.621V222.72H743.482V188.653C743.482 178.737 740.61 173.837 733.023 173.837C724.17 173.837 720.377 178.854 720.377 191.103V222.72H704.053L704.052 162.402ZM810.806 185.436C809.244 177.251 805.52 172.932 797.232 172.932C786.423 172.932 783.301 180.89 783.06 185.436H810.806ZM783.06 195.667C783.539 205.895 788.824 210.557 798.314 210.557C805.159 210.557 810.685 206.578 811.766 202.94H826.782C821.976 216.808 811.766 222.72 797.713 222.72C778.135 222.72 766.003 209.987 766.003 191.8C766.003 174.184 778.856 160.769 797.713 160.769C818.852 160.769 829.062 177.592 827.86 195.666L783.06 195.667ZM864.706 227.824C861.089 237.386 855.372 241.306 843.938 241.306C840.555 241.306 837.171 241.074 833.788 240.728V227.248C836.938 227.479 840.205 227.94 843.471 227.824C849.188 227.248 851.054 221.373 849.188 216.649L827.955 160.769H845.689L859.34 201.556H859.573L872.758 160.769H889.906L864.706 227.824Z" fill="white"/>
</g>
<defs>
<filter id="filter0_d_1715_13021" x="0" y="0" width="931.077" height="255.501" filterUnits="userSpaceOnUse" color-interpolation-filters="sRGB">
<feFlood flood-opacity="0" result="BackgroundImageFix"/>
<feColorMatrix in="SourceAlpha" type="matrix" values="0 0 0 0 0 0 0 0 0 0 0 0 0 0 0 0 0 0 127 0" result="hardAlpha"/>
<feOffset dy="4"/>
<feGaussianBlur stdDeviation="2"/>
<feComposite in2="hardAlpha" operator="out"/>
<feColorMatrix type="matrix" values="0 0 0 0 0 0 0 0 0 0 0 0 0 0 0 0 0 0 0.25 0"/>
<feBlend mode="normal" in2="BackgroundImageFix" result="effect1_dropShadow_1715_13021"/>
<feBlend mode="normal" in="SourceGraphic" in2="effect1_dropShadow_1715_13021" result="shape"/>
</filter>
</defs>
</svg>
