<?xml version="1.0" encoding="utf-8"?>
<!-- Generator: Adobe Illustrator 19.0.0, SVG Export Plug-In . SVG Version: 6.00 Build 0)  -->
<svg version="1.1" id="layer" xmlns="http://www.w3.org/2000/svg" xmlns:xlink="http://www.w3.org/1999/xlink" x="0px" y="0px"
	 viewBox="-153 -46 652 652" style="enable-background:new -153 -46 652 652;" xml:space="preserve">
<style type="text/css">
	.st0{fill:#093451;}
</style>
<path class="st0" d="M-45.3,315.6h57.6v-15.2h-40.2v-18.6H5.4v-15.2h-33.3v-17.2h40.4v-15.2h-57.8V315.6z M81.6,285.4l-37.7-51.2
	h-26l8.1,10.3v71.3h17.4v-53.4l39,53.2H99v-81.4H81.6V285.4z M-71.6,273.7c7.6-1.5,14-8.6,14-18.6c-0.1-10.8-7.9-20.9-23.6-20.9
	h-50.5l7.8,10v71.4h44.4c15.7,0,23.8-9.8,23.8-22.1C-55.9,283.5-62.8,274.9-71.6,273.7z M-106.4,249.5h21.8c5.9,0,9.6,3.4,9.6,8.6
	c0,5.1-3.7,8.6-9.6,8.6h-21.8V249.5z M-83.8,300.5h-22.5v-18.7h22.5c6.6,0,10.3,4.2,10.3,9.3C-73.5,297-77.4,300.4-83.8,300.5
	L-83.8,300.5z M353.7,285.4h9.1v9.6c-4.7,3.9-10.6,6-16.7,6.1c-14.5,0-24.8-11-24.8-26c0-14.9,10.3-26,24.8-26
	c7.6,0.1,14.6,3.9,18.6,10.3l13.7-7.6c-5.9-9.3-16.2-17.6-32.6-17.6c-23,0-42.2,15.9-42.2,40.7s18.9,40.7,42.2,40.7
	c12.7,0.2,24.9-5.2,33.3-14.7v-30.1H342L353.7,285.4z M275.3,285.4l-37.8-51.2h-26l8.1,10.3v71.3h17.4v-53.4l39,53.2h16.7v-81.4
	h-17.4V285.4z M436.8,234.2h-33.6l8.1,10.3l-1.5,3.9l-26,67.4h19.6l5.1-13.7h35.1l5.1,13.7h19.6L436.8,234.2z M413.1,286.7
	l12.7-35.1l12.7,35.1H413.1z M184.1,234.2h17.4v81.6h-17.4V234.2z M170.1,248.2v-14h-61.3v15.2h38.5l-38.5,52.2v14h62v-15.2h-39.5
	L170.1,248.2z"/>
</svg>
