<svg width="274" height="38" viewBox="0 0 274 38" fill="none" xmlns="http://www.w3.org/2000/svg">
<path d="M39.6118 37.2372H65.8198V30.3212H47.5288V21.8582H62.6803V14.9422H47.5288V7.11619H65.9108V0.200195H39.6118V37.2372ZM97.3513 23.4962L80.1978 0.200195H68.3678L72.0533 4.8867V37.3282H79.9703V13.0312L97.7153 37.2372H105.268V0.200195H97.3513V23.4962ZM27.6453 18.1727C31.1033 17.4902 34.0153 14.2597 34.0153 9.7097C33.9698 4.7957 30.4208 0.200195 23.2773 0.200195H0.299805L3.8488 4.7502V37.2372H24.0508C31.1943 37.2372 34.8798 32.7782 34.8798 27.1817C34.7888 22.6317 31.6493 18.7187 27.6453 18.1727ZM11.8113 7.1617H21.7303C24.4148 7.1617 26.0983 8.7087 26.0983 11.0747C26.0983 13.3952 24.4148 14.9877 21.7303 14.9877H11.8113V7.1617ZM22.0943 30.3667H11.8568V21.8582H22.0943C25.0973 21.8582 26.7808 23.7692 26.7808 26.0897C26.7808 28.7742 25.0063 30.3212 22.0943 30.3667ZM221.157 23.4962H225.297V27.8642C223.159 29.6387 220.474 30.5942 217.699 30.6397C211.101 30.6397 206.415 25.6347 206.415 18.8097C206.415 12.0302 211.101 6.9797 217.699 6.9797C221.157 7.0252 224.342 8.75419 226.162 11.6662L232.395 8.2082C229.711 3.9767 225.024 0.200195 217.562 0.200195C207.097 0.200195 198.361 7.43469 198.361 18.7187C198.361 30.0027 206.961 37.2372 217.562 37.2372C223.341 37.3282 228.892 34.8712 232.714 30.5487V16.8532H215.833L221.157 23.4962ZM185.485 23.4962L168.286 0.200195H156.456L160.141 4.8867V37.3282H168.058V13.0312L185.803 37.2372H193.402V0.200195H185.485V23.4962ZM258.967 0.200195H243.679L247.365 4.8867L246.682 6.66119L234.852 37.3282H243.77L246.091 31.0947H262.061L264.382 37.3282H273.3L258.967 0.200195ZM248.184 24.0877L253.962 8.1172L259.741 24.0877H248.184ZM143.989 0.200195H151.906V37.3282H143.989V0.200195ZM137.619 6.5702V0.200195H109.727V7.11619H127.245L109.727 30.8672V37.2372H137.937V30.3212H119.965L137.619 6.5702Z" fill="#093451"/>
</svg>
