<svg width="273" height="58" viewBox="0 0 273 58" fill="none" xmlns="http://www.w3.org/2000/svg">
<path d="M7.1631 7.48422H13.1228C18.5668 7.48422 20.9162 9.29484 20.9162 12.9764C20.9162 16.1752 18.5094 18.3479 13.7531 18.3479H7.2204V7.48422H7.1631ZM0 43.5154H14.5554C22.177 43.5154 29.8558 40.6185 29.8558 31.3843C29.8558 25.8921 26.1883 21.7277 21.1455 21.1242V21.0035C25.3287 19.6757 28.1366 16.4769 28.1366 11.709C28.1366 3.98369 21.8904 1.02637 15.7588 1.02637H0V43.5154ZM7.1631 24.8058H14.0397C19.8848 24.8058 22.5781 26.375 22.5781 30.8411C22.5781 36.454 17.4207 37.1179 13.7531 37.1179H7.1631V24.8058Z" fill="white"/>
<path d="M34.498 0H41.3173V43.5151H34.498V0Z" fill="white"/>
<path d="M52.7783 29.0912C52.7783 24.5647 55.8154 20.4606 60.8009 20.4606C65.8437 20.4606 68.8236 24.625 68.8236 29.0912C68.8236 33.6177 65.7864 37.7218 60.8009 37.7218C55.8154 37.7821 52.7783 33.6177 52.7783 29.0912ZM45.959 29.0912C45.959 38.1443 52.549 44.24 60.8582 44.24C69.1101 44.24 75.7575 38.1443 75.7575 29.0912C75.7575 20.0381 69.1674 13.9424 60.8582 13.9424C52.549 14.0027 45.959 20.0381 45.959 29.0912Z" fill="white"/>
<path d="M85.6705 29.0912C85.6705 24.5647 88.7077 20.4606 93.6932 20.4606C98.736 20.4606 101.716 24.625 101.716 29.0912C101.716 33.6177 98.6787 37.7218 93.6932 37.7218C88.6504 37.7821 85.6705 33.6177 85.6705 29.0912ZM78.7939 29.0912C78.7939 38.1443 85.384 44.24 93.6932 44.24C101.945 44.24 108.592 38.1443 108.592 29.0912C108.592 20.0381 102.002 13.9424 93.6932 13.9424C85.4413 14.0027 78.7939 20.0381 78.7939 29.0912Z" fill="white"/>
<path d="M112.776 14.7262H119.252V19.2527H119.366C120.57 16.5368 123.206 14.002 127.733 14.002C131.973 14.002 134.838 15.7522 136.271 19.3734C138.277 15.6919 141.199 14.002 145.268 14.002C152.546 14.002 155.124 19.4941 155.124 26.3745V43.5753H148.305V27.2194C148.305 23.5982 147.274 20.5202 143.205 20.5202C138.907 20.5202 137.303 24.2621 137.303 27.9437V43.5753H130.483V26.3745C130.483 22.8136 129.108 20.4598 125.784 20.4598C121.257 20.4598 119.538 23.9603 119.538 27.7626V43.515H112.719V14.7262H112.776Z" fill="white"/>
<path d="M183.433 29.0905C183.433 33.6171 180.396 37.7211 175.41 37.7211C170.367 37.7211 167.388 33.5567 167.388 29.0905C167.388 24.564 170.425 20.4599 175.41 20.4599C180.396 20.4599 183.433 24.6244 183.433 29.0905ZM160.74 43.5151H167.216V39.1696H167.33C169.336 42.6701 172.946 44.2393 176.728 44.2393C185.152 44.2393 190.252 37.6608 190.252 29.0905C190.252 20.5806 184.808 13.9417 177.015 13.9417C171.857 13.9417 169.164 16.4766 167.731 18.3476H167.56V0H160.74V43.5151Z" fill="white"/>
<path d="M200.223 26.2546C200.739 22.0901 203.26 19.4346 207.272 19.4346C211.57 19.4346 214.148 22.0901 214.206 26.2546H200.223ZM221.082 31.626V29.6344C221.082 19.6156 215.867 13.9424 208.246 13.9424C199.994 13.9424 193.347 20.0381 193.347 29.0912C193.347 38.1443 199.937 44.24 208.246 44.24C212.601 44.24 216.612 42.6104 219.821 38.446L214.893 34.523C213.174 36.7561 210.939 38.446 207.558 38.446C203.719 38.446 200.682 35.8508 200.223 31.626H221.082Z" fill="white"/>
<path d="M225.552 14.7262H232.371V19.3131H232.486C233.976 15.9936 237.013 14.002 240.566 14.002C241.425 14.002 242.227 14.183 243.03 14.4244V21.3651C241.884 21.0633 240.795 20.8219 239.706 20.8219C233.288 20.8219 232.371 26.5555 232.371 28.0644V43.515H225.552V14.7262Z" fill="white"/>
<path d="M258.387 20.4598C263.373 20.4598 266.467 23.9603 266.467 28.9093C266.467 33.7376 263.373 37.3589 258.33 37.3589C253.688 37.3589 250.307 33.5566 250.307 29.0301C250.307 23.9603 253.574 20.4598 258.387 20.4598ZM266.467 14.7262V19.0717H266.353C264.347 15.5712 260.737 14.002 256.955 14.002C248.531 14.002 243.431 20.6409 243.431 29.1508C243.431 37.2985 248.875 43.9374 257.069 43.9374C260.508 43.9374 264.003 42.5493 266.009 39.7127H266.123V41.8251C266.123 47.5587 264.06 51.4817 257.47 51.4817C253.631 51.4817 250.823 49.9728 248.072 47.3173L243.946 53.2319C247.843 56.8532 252.428 57.9999 257.528 57.9999C268.186 57.9999 273 51.4213 273 40.9801V14.7262H266.467Z" fill="white"/>
</svg>
