<svg width="477" height="97" viewBox="0 0 477 97" fill="none" xmlns="http://www.w3.org/2000/svg">
<g clip-path="url(#clip0_3195_2305)">
<path d="M12.5 12.4002H22.9C32.4 12.4002 36.5 15.4002 36.5 21.5002C36.5 26.8002 32.3 30.4002 24 30.4002H12.6V12.4002H12.5ZM0 72.1002H25.4C38.7 72.1002 52.1 67.3002 52.1 52.0002C52.1 42.9002 45.7 36.0002 36.9 35.0002V34.8002C44.2 32.6002 49.1 27.3002 49.1 19.4002C49.1 6.60018 38.2 1.7002 27.5 1.7002H0V72.1002ZM12.5 41.1002H24.5C34.7 41.1002 39.4 43.7002 39.4 51.1002C39.4 60.4002 30.4 61.5002 24 61.5002H12.5V41.1002Z" fill="white"/>
<path d="M60.2 0H72.1V72.1H60.2V0Z" fill="white"/>
<path d="M92.1 48.2001C92.1 40.7001 97.4 33.9001 106.1 33.9001C114.9 33.9001 120.1 40.8001 120.1 48.2001C120.1 55.7001 114.8 62.5001 106.1 62.5001C97.4 62.6001 92.1 55.7001 92.1 48.2001ZM80.2 48.2001C80.2 63.2001 91.7 73.3001 106.2 73.3001C120.6 73.3001 132.2 63.2001 132.2 48.2001C132.2 33.2001 120.7 23.1001 106.2 23.1001C91.7 23.2001 80.2 33.2001 80.2 48.2001Z" fill="white"/>
<path d="M149.5 48.2001C149.5 40.7001 154.8 33.9001 163.5 33.9001C172.3 33.9001 177.5 40.8001 177.5 48.2001C177.5 55.7001 172.2 62.5001 163.5 62.5001C154.7 62.6001 149.5 55.7001 149.5 48.2001ZM137.5 48.2001C137.5 63.2001 149 73.3001 163.5 73.3001C177.9 73.3001 189.5 63.2001 189.5 48.2001C189.5 33.2001 178 23.1001 163.5 23.1001C149.1 23.2001 137.5 33.2001 137.5 48.2001Z" fill="white"/>
<path d="M196.8 24.4002H208.1V31.9002H208.3C210.4 27.4002 215 23.2002 222.9 23.2002C230.3 23.2002 235.3 26.1002 237.8 32.1002C241.3 26.0002 246.4 23.2002 253.5 23.2002C266.2 23.2002 270.7 32.3002 270.7 43.7002V72.2002H258.8V45.1002C258.8 39.1002 257 34.0002 249.9 34.0002C242.4 34.0002 239.6 40.2002 239.6 46.3002V72.2002H227.7V43.7002C227.7 37.8002 225.3 33.9002 219.5 33.9002C211.6 33.9002 208.6 39.7002 208.6 46.0002V72.1002H196.7V24.4002H196.8Z" fill="white"/>
<path d="M320.1 48.2C320.1 55.7 314.8 62.5 306.1 62.5C297.3 62.5 292.1 55.6 292.1 48.2C292.1 40.7 297.4 33.9 306.1 33.9C314.8 33.9 320.1 40.8 320.1 48.2ZM280.5 72.1H291.8V64.9H292C295.5 70.7 301.8 73.3 308.4 73.3C323.1 73.3 332 62.4 332 48.2C332 34.1 322.5 23.1 308.9 23.1C299.9 23.1 295.2 27.3 292.7 30.4H292.4V0H280.5V72.1Z" fill="white"/>
<path d="M349.4 43.5001C350.3 36.6001 354.7 32.2001 361.7 32.2001C369.2 32.2001 373.7 36.6001 373.8 43.5001H349.4ZM385.8 52.4001V49.1001C385.8 32.5001 376.7 23.1001 363.4 23.1001C349 23.1001 337.4 33.2001 337.4 48.2001C337.4 63.2001 348.9 73.3001 363.4 73.3001C371 73.3001 378 70.6001 383.6 63.7001L375 57.2001C372 60.9001 368.1 63.7001 362.2 63.7001C355.5 63.7001 350.2 59.4001 349.4 52.4001H385.8Z" fill="white"/>
<path d="M393.6 24.4002H405.5V32.0002H405.7C408.3 26.5002 413.6 23.2002 419.8 23.2002C421.3 23.2002 422.7 23.5002 424.1 23.9002V35.4002C422.1 34.9002 420.2 34.5002 418.3 34.5002C407.1 34.5002 405.5 44.0002 405.5 46.5002V72.1002H393.6V24.4002Z" fill="white"/>
<path d="M450.9 33.9002C459.6 33.9002 465 39.7002 465 47.9002C465 55.9002 459.6 61.9002 450.8 61.9002C442.7 61.9002 436.8 55.6002 436.8 48.1002C436.8 39.7002 442.5 33.9002 450.9 33.9002ZM465 24.4002V31.6002H464.8C461.3 25.8002 455 23.2002 448.4 23.2002C433.7 23.2002 424.8 34.2002 424.8 48.3002C424.8 61.8002 434.3 72.8002 448.6 72.8002C454.6 72.8002 460.7 70.5002 464.2 65.8002H464.4V69.3002C464.4 78.8002 460.8 85.3002 449.3 85.3002C442.6 85.3002 437.7 82.8002 432.9 78.4002L425.7 88.2002C432.5 94.2002 440.5 96.1002 449.4 96.1002C468 96.1002 476.4 85.2002 476.4 67.9002V24.4002H465Z" fill="white"/>
</g>
<defs>
<clipPath id="clip0_3195_2305">
<rect width="476.4" height="96.1" fill="white"/>
</clipPath>
</defs>
</svg>
