<svg width="273" height="38" viewBox="0 0 273 38" fill="none" xmlns="http://www.w3.org/2000/svg">
<path d="M66.1046 15.5355L65.6496 17.7425H65.5132C64.9217 16.5308 63.2839 14.7998 59.6443 14.7998C53.7754 14.7998 47.77 19.1273 46.4506 25.9215C45.3133 31.8934 48.316 37.1297 55.2767 37.1297C57.8245 37.1297 60.7362 36.1777 62.283 34.1437H62.4195L62.01 36.3941H68.5158L72.5649 15.5355H66.1046ZM63.9663 25.9215C63.5569 27.9554 61.5096 31.2876 57.415 31.2876C53.4114 31.2876 52.5925 27.9554 52.9565 26.008C53.4114 23.6279 55.6407 20.6419 59.4623 20.6419C63.1929 20.6852 64.4668 23.4981 63.9663 25.9215Z" fill="#2E2E2F"/>
<path d="M76.2502 15.5355H82.3466L81.9372 17.7425H82.0736C82.8471 16.7472 84.3939 14.7998 88.1245 14.7998L86.8961 21.118C83.8025 21.1612 81.5732 21.7671 80.9818 24.9694L78.7525 36.3941H72.2012L76.2502 15.5355Z" fill="#2E2E2F"/>
<path d="M92.492 7.39941H99.0888L95.9951 23.1083H96.0861L103.684 15.5351H111.418L101.409 24.7094L107.141 36.3937H99.7257L95.4947 26.3539H95.3582L93.4474 36.3937H86.8506L92.492 7.39941Z" fill="#2E2E2F"/>
<path d="M121.928 14.7998C115.285 14.7998 109.371 20.2525 108.279 26.0513C107.051 32.2397 111.464 37.0865 117.742 37.0865C119.971 37.0865 122.292 36.4373 124.293 35.1823C126.386 33.9706 128.297 32.1964 129.753 29.8595H123.065C121.973 30.9414 120.699 31.8069 118.697 31.8069C116.15 31.8069 114.239 30.3355 114.375 27.8689H130.799C130.981 27.3928 131.118 27.0034 131.254 26.2244C132.528 19.863 128.615 14.7998 121.928 14.7998ZM115.285 23.6712C115.786 22.4595 117.606 20.0794 121.018 20.0794C124.43 20.0794 125.249 22.4162 125.249 23.6712H115.285Z" fill="#2E2E2F"/>
<path d="M37.7611 7.39941L26.2053 23.9305H26.1143V7.39941H20.5184L0 36.3937H7.96167L19.472 19.8626H19.563V36.3937H25.2044L36.7147 19.8626H36.8057V36.3937H43.4025V7.39941H37.7611Z" fill="#2E2E2F"/>
<path d="M147.905 15.536H143.765L144.993 9.34766H139.261L138.806 11.7278C138.305 14.4541 136.485 15.2763 134.12 15.536H134.074L133.073 20.253H136.303L133.164 36.3513H139.716L142.855 20.253H147.04L147.905 15.536Z" fill="#2E2E2F"/>
<path d="M249.314 28.5183C247.176 33.2352 242.035 37.13 236.121 37.13C229.479 37.13 225.338 32.1534 226.521 25.9218C227.75 19.82 233.664 14.8433 240.261 14.8433C246.039 14.8433 250.042 18.5217 250.179 23.6282H243.537C243.127 22.1568 242.126 20.6855 239.351 20.6855C236.257 20.5557 233.71 22.9358 233.118 25.965C232.527 29.0376 234.165 31.2879 237.304 31.2879C239.988 31.2879 241.626 29.8165 242.581 28.475L249.314 28.5183ZM195.039 0L182.3 7.40004H185.894L174.338 23.9311H174.202V7.40004H168.56L157.05 23.9311H156.914V7.40004H150.362V36.3943H156.095L167.65 19.8633H167.787V36.3943H173.428L193.856 7.40004H197.086L195.039 0ZM207.459 36.3943H200.953L201.362 34.144H201.226C199.679 36.178 196.767 37.13 194.22 37.13C187.259 37.13 184.256 31.937 185.394 25.9218C186.668 19.1276 192.718 14.8001 198.587 14.8001C202.181 14.8001 203.865 16.4878 204.456 17.7428H204.593L205.048 15.5357H211.553L207.459 36.3943ZM196.449 31.3311C200.498 31.3311 202.545 27.999 203 25.965C203.455 23.4551 202.227 20.6855 198.496 20.6855C194.72 20.6855 192.491 23.6715 191.99 26.0516C191.626 27.999 192.445 31.3311 196.449 31.3311ZM227.932 15.5357H223.837L225.066 9.34742H219.333L218.878 11.7275C218.378 14.4539 216.558 15.2761 214.192 15.5357H214.101L213.146 20.2527H216.376L213.237 36.3511H219.788L222.927 20.2527H227.113L227.932 15.5357ZM255.502 7.40004H262.053L260.051 17.7428H260.188C261.598 15.7954 263.463 14.8001 266.375 14.8001C268.468 14.8001 270.834 15.5358 271.926 17.1369C273.336 19.1709 273.199 20.9884 272.426 24.7101L270.197 36.3511H263.645L265.829 25.013C266.011 24.0177 266.648 20.6422 263.191 20.6422C259.505 20.6422 258.868 23.758 258.687 24.7966L256.457 36.3511H249.906L255.502 7.40004Z" fill="#00AC4E"/>
</svg>
