<?xml version="1.0" encoding="utf-8"?>
<!-- Generator: Adobe Illustrator 19.2.1, SVG Export Plug-In . SVG Version: 6.00 Build 0)  -->
<svg version="1.1" id="layer" xmlns="http://www.w3.org/2000/svg" xmlns:xlink="http://www.w3.org/1999/xlink" x="0px" y="0px"
	 viewBox="0 0 652 652" style="enable-background:new 0 0 652 652;" xml:space="preserve">
<style type="text/css">
	.st0{fill:#2E2E2F;}
	.st1{fill:#00AC4E;}
</style>
<g>
	<g>
		<path class="st0" d="M171.1,318.9l-1,5.1h-0.3c-1.3-2.8-4.9-6.8-12.9-6.8c-12.9,0-26.1,10-29,25.7c-2.5,13.8,4.1,25.9,19.4,25.9
			c5.6,0,12-2.2,15.4-6.9h0.3l-0.9,5.2h14.3l8.9-48.2C185.3,318.9,171.1,318.9,171.1,318.9z M166.4,342.9
			c-0.9,4.7-5.4,12.4-14.4,12.4c-8.8,0-10.6-7.7-9.8-12.2c1-5.5,5.9-12.4,14.3-12.4C164.7,330.8,167.5,337.3,166.4,342.9z"/>
		<path class="st0" d="M193.4,318.9h13.4l-0.9,5.1h0.3c1.7-2.3,5.1-6.8,13.3-6.8l-2.7,14.6c-6.8,0.1-11.7,1.5-13,8.9l-4.9,26.4
			h-14.4L193.4,318.9z"/>
		<polygon class="st0" points="229.1,300.1 243.6,300.1 236.8,336.4 237,336.4 253.7,318.9 270.7,318.9 248.7,340.1 261.3,367.1 
			245,367.1 235.7,343.9 235.4,343.9 231.2,367.1 216.7,367.1 		"/>
		<path class="st0" d="M293.8,317.2c-14.6,0-27.6,12.6-30,26c-2.7,14.3,7,25.5,20.8,25.5c4.9,0,10-1.5,14.4-4.4
			c4.6-2.8,8.8-6.9,12-12.3h-14.7c-2.4,2.5-5.2,4.5-9.6,4.5c-5.6,0-9.8-3.4-9.5-9.1h36.1c0.4-1.1,0.7-2,1-3.8
			C317.1,328.9,308.5,317.2,293.8,317.2z M279.2,337.7c1.1-2.8,5.1-8.3,12.6-8.3c7.5,0,9.3,5.4,9.3,8.3H279.2z"/>
		<polygon class="st0" points="108.8,300.1 83.4,338.3 83.2,338.3 83.2,300.1 70.9,300.1 25.8,367.1 43.3,367.1 68.6,328.9 
			68.8,328.9 68.8,367.1 81.2,367.1 106.5,328.9 106.7,328.9 106.7,367.1 121.2,367.1 121.2,300.1 		"/>
		<path class="st0" d="M350.9,318.9h-9.1l2.7-14.3h-12.6l-1,5.5c-1.1,6.3-5.1,8.2-10.3,8.8h-0.1l-2.2,10.9h7.1l-6.9,37.2h14.4
			l6.9-37.2h9.2L350.9,318.9z"/>
	</g>
	<g>
		<g>
			<path class="st1" d="M573.8,348.9c-4.7,10.9-16,19.9-29,19.9c-14.6,0-23.7-11.5-21.1-25.9c2.7-14.1,15.7-25.6,30.2-25.6
				c12.7,0,21.5,8.5,21.8,20.3h-14.6c-0.9-3.4-3.1-6.8-9.2-6.8c-6.8-0.3-12.4,5.2-13.7,12.2c-1.3,7.1,2.3,12.3,9.2,12.3
				c5.9,0,9.5-3.4,11.6-6.5L573.8,348.9L573.8,348.9z M454.5,283l-28,17.1h7.9L409,338.3h-0.3v-38.2h-12.4L371,338.3h-0.3v-38.2
				h-14.4v67h12.6l25.4-38.2h0.3v38.2h12.4l44.9-67h7.1L454.5,283z M481.8,367.1h-14.3l0.9-5.2h-0.3c-3.4,4.7-9.8,6.9-15.4,6.9
				c-15.3,0-21.9-12-19.4-25.9c2.8-15.7,16.1-25.7,29-25.7c7.9,0,11.6,3.9,12.9,6.8h0.3l1-5.1h14.3L481.8,367.1z M457.6,355.4
				c8.9,0,13.4-7.7,14.4-12.4c1-5.8-1.7-12.2-9.9-12.2c-8.3,0-13.2,6.9-14.3,12.4C447,347.7,448.8,355.4,457.6,355.4L457.6,355.4z
				 M526.8,318.9h-9l2.7-14.3h-12.6l-1,5.5c-1.1,6.3-5.1,8.2-10.3,8.8h-0.2l-2.1,10.9h7.1l-6.9,37.2h14.4l6.9-37.2h9.2L526.8,318.9z
				 M587.4,300.1h14.4l-4.4,23.9h0.3c3.1-4.5,7.2-6.8,13.6-6.8c4.6,0,9.8,1.7,12.2,5.4c3.1,4.7,2.8,8.9,1.1,17.5l-4.9,26.9h-14.4
				l4.8-26.2c0.4-2.3,1.8-10.1-5.8-10.1c-8.1,0-9.5,7.2-9.9,9.6l-4.9,26.7h-14.4L587.4,300.1z"/>
		</g>
	</g>
</g>
</svg>
