<svg width="273" height="63" viewBox="0 0 273 63" fill="none" xmlns="http://www.w3.org/2000/svg">
<path d="M40.6255 45.7073L28.9456 50.5694V50.0831C26.6935 50.6353 24.1987 50.9534 21.8358 51.0558C10.8515 50.9534 2.13285 45.449 2.03138 38.899V36.4674C5.63912 41.4906 12.9833 44.8563 21.8358 44.7347C24.8305 44.8563 27.8944 44.4024 30.4686 43.7621L31.4843 41.3305C28.431 42.2028 25.0983 42.8097 21.8358 42.7895C10.8515 42.8097 2.13285 37.3053 2.03138 30.6337V28.6884C5.63912 33.3317 12.9676 36.6984 21.8358 36.4684C25.8253 36.6984 29.727 35.895 33.0073 34.5232L33.5157 32.0916C30.3107 33.7106 26.1569 34.6508 21.8358 34.5232C10.8515 34.6508 2.13285 29.1464 2.03138 22.3674V20.4221C5.63912 25.1738 12.9833 28.5395 21.8358 28.6884C26.8672 28.5395 31.637 27.2659 35.5471 25.2842L36.0554 22.3663C32.5063 24.885 27.3253 26.5081 21.8358 26.7432C10.8515 26.5081 2.13389 21.0026 2.03138 14.101C2.13285 7.53684 10.8515 2.03238 21.8358 1.94525C28.3839 2.03238 34.4655 4.23092 38.0868 7.77999L38.4393 8.34229L41 8.35242L40.6255 7.77999C37.0241 3.09315 29.8211 0 21.8358 0C9.68201 0 0 6.41426 0 14.101V39.3853C0.426778 46.8887 9.88808 53 21.8358 53C29.727 53 36.819 50.0284 40.6255 45.7073Z" fill="white"/>
<path d="M35.026 63L39.0337 46.2726L27.5125 51.1926L34.526 22.1663H21L24.5067 7.89888H67.5855L64.0788 22.1663H50.0538L47.0481 30.0379L62.5759 23.6421L35.026 63ZM42.0394 42.8284L40.0356 52.6684L56.5653 28.0705L43.0403 33.9747L49.0519 20.1989H62.5759L65.0807 9.86729H26.0096L23.5048 20.1989H37.0308L30.5183 47.7494L42.0405 42.8305V42.8284H42.0394ZM97.263 17.3214C97.1444 18.9526 96.5381 20.2365 95.4442 21.175C94.3503 22.1124 92.9087 22.5807 91.1196 22.5807C89.1638 22.5807 87.623 21.9266 86.5025 20.6173C85.382 19.3091 84.8197 17.5124 84.8197 15.2281V14.3008C84.8197 12.8433 85.0783 11.5584 85.5967 10.4472C86.113 9.3371 86.8522 8.48392 87.8122 7.89076C88.7732 7.29658 89.8896 7 91.1625 7C92.923 7 94.3421 7.46925 95.4186 8.40673C96.4942 9.34319 97.1158 10.6595 97.2845 12.3537H94.1397C94.063 11.3746 93.7879 10.6646 93.3166 10.2238C92.8443 9.78299 92.1266 9.5636 91.1625 9.5636C90.1135 9.5636 89.3294 9.93534 88.809 10.6819C88.2876 11.4284 88.0218 12.5863 88.0064 14.1555V15.3012C88.0064 16.9395 88.2569 18.137 88.7558 18.8937C89.2568 19.6504 90.044 20.0293 91.1206 20.0293C92.0918 20.0293 92.8177 19.8089 93.2952 19.3691C93.7757 18.9272 94.0487 18.2447 94.1182 17.3214H97.263ZM113.502 15.1347C113.502 16.6277 113.237 17.9359 112.705 19.0603C112.174 20.1857 111.415 21.0531 110.425 21.6645C109.436 22.2749 108.303 22.5807 107.024 22.5807C105.759 22.5807 104.63 22.279 103.638 21.6747C102.646 21.0703 101.876 20.208 101.331 19.0867C100.786 17.9654 100.51 16.6755 100.503 15.2169V14.4673C100.503 12.9743 100.774 11.661 101.316 10.5265C101.858 9.39093 102.622 8.51947 103.612 7.91107C104.601 7.30369 105.731 7 107.003 7C108.275 7 109.406 7.30471 110.394 7.91107C111.383 8.52049 112.149 9.39093 112.69 10.5255C113.231 11.661 113.502 12.9712 113.502 14.4572V15.1347ZM110.316 14.447C110.316 12.8565 110.029 11.6488 109.457 10.822C108.883 9.99628 108.065 9.5829 107.003 9.5829C105.947 9.5829 105.133 9.9912 104.56 10.8068C103.987 11.6224 103.697 12.8179 103.691 14.3952V15.1347C103.691 16.6826 103.977 17.8841 104.549 18.7373C105.122 19.5915 105.947 20.0191 107.024 20.0191C108.079 20.0191 108.889 19.6077 109.457 18.785C110.022 17.9623 110.309 16.7638 110.316 15.1865V14.447ZM120.766 22.3724H117.622V7.20822H120.766V22.3724ZM137.73 22.3724H134.584L128.462 12.3953V22.3724H125.317V7.20822H128.462L134.595 17.2067V7.20822H137.73V22.3724ZM153.298 9.73931H148.623V22.3724H145.478V9.73931H140.865V7.20822H153.298V9.73931ZM165.91 15.8009H159.872V19.8637H166.958V22.3724H156.726V7.20822H166.938V9.73931H159.872V13.3531H165.91V15.8009ZM173.584 19.8637H180.262V22.3724H170.439V7.20822H173.584V19.8637ZM192.885 15.8009H186.847V19.8637H193.933V22.3724H183.702V7.20822H193.912V9.73931H186.847V13.3531H192.885V15.8009ZM209.491 20.4558C208.925 21.1292 208.124 21.6523 207.09 22.0231C206.056 22.3948 204.91 22.5817 203.651 22.5817C202.33 22.5817 201.172 22.2942 200.176 21.7214C199.18 21.1485 198.412 20.3177 197.87 19.2269C197.328 18.137 197.051 16.8562 197.037 15.3845V14.3526C197.037 12.8392 197.293 11.529 197.807 10.4219C198.321 9.31476 199.062 8.46665 200.029 7.8806C200.997 7.29353 202.131 7 203.431 7C205.241 7 206.657 7.42862 207.677 8.28688C208.698 9.14412 209.302 10.3924 209.491 12.0307H206.429C206.29 11.1623 205.98 10.5275 205.502 10.1243C205.023 9.72205 204.364 9.52094 203.526 9.52094C202.456 9.52094 201.642 9.92011 201.082 10.7195C200.524 11.5168 200.241 12.7041 200.234 14.2805V15.2484C200.234 16.839 200.538 18.0395 201.145 18.8521C201.754 19.6646 202.645 20.0709 203.819 20.0709C205 20.0709 205.843 19.821 206.345 19.3213V16.7069H203.484V14.4054H209.491V20.4558ZM219.324 16.8217H216.819V22.3724H213.674V7.20822H219.346C221.148 7.20822 222.54 7.60738 223.517 8.40673C224.496 9.20506 224.985 10.3325 224.985 11.791C224.985 12.827 224.76 13.6883 224.309 14.379C223.859 15.0696 223.175 15.6202 222.26 16.0295L225.562 22.2262V22.3724H222.186L219.324 16.8217ZM216.819 14.2906H219.355C220.145 14.2906 220.757 14.0905 221.19 13.6914C221.624 13.2922 221.84 12.7427 221.84 12.0409C221.84 11.3258 221.636 10.7631 221.227 10.3548C220.818 9.94448 220.191 9.73931 219.346 9.73931H216.818L216.819 14.2906ZM237.629 19.2472H232.114L231.066 22.3724H227.722L233.404 7.20822H236.318L242.031 22.3724H238.688L237.629 19.2472ZM232.964 16.7181H236.779L234.861 11.0404L232.964 16.7181ZM248.238 17.0299V22.3724H245.093V7.20822H251.048C252.194 7.20822 253.202 7.41643 254.072 7.83388C254.943 8.25031 255.611 8.84144 256.08 9.6093C256.548 10.3761 256.782 11.2496 256.782 12.2298C256.782 13.7147 256.271 14.8858 255.246 15.7441C254.222 16.6013 252.805 17.0299 250.995 17.0299H248.238ZM248.238 14.4988H251.048C251.88 14.4988 252.514 14.3058 252.95 13.9158C253.388 13.5268 253.606 12.9712 253.606 12.2501C253.606 11.5066 253.386 10.9053 252.945 10.4472C252.505 9.99019 251.897 9.75353 251.121 9.73931H248.238V14.4988ZM273 22.3724H269.855V15.8741H263.723V22.3724H260.577V7.20822H263.723V13.3531H269.855V7.20822H273V22.3724Z" fill="#FABF2C"/>
<path d="M88.069 35V44.8634H86V35H88.069ZM92.4864 39.2611V40.7318H87.5276V39.2611H92.4864ZM93.0658 35V36.4706H87.5276V35H93.0648H93.0658ZM96.6511 39.0308V44.8634H94.6654V37.5334H96.5464L96.6511 39.0308ZM99.127 37.4862L99.0972 39.1529C98.9727 39.1333 98.8472 39.1198 98.7212 39.1122C98.5933 39.1034 98.4652 39.0988 98.337 39.0984C98.0318 39.0984 97.7627 39.1372 97.5326 39.214C97.315 39.2789 97.1169 39.3877 96.9532 39.5322C96.7979 39.6791 96.6798 39.8545 96.607 40.0464C96.5226 40.2646 96.4769 40.4934 96.4714 40.7244L96.043 40.6772C96.043 40.212 96.0943 39.78 96.2002 39.3823C96.306 38.9855 96.459 38.6377 96.6594 38.3399C96.8433 38.0573 97.102 37.8199 97.4124 37.649C97.7175 37.4816 98.0699 37.3983 98.4654 37.3983C98.5753 37.3983 98.6934 37.4076 98.8188 37.4252C98.9492 37.439 99.052 37.4594 99.127 37.4862ZM104.987 43.3049V39.9252C104.987 39.6764 104.938 39.4628 104.844 39.2815C104.751 39.1037 104.598 38.9567 104.407 38.8616C104.211 38.7617 103.964 38.7127 103.663 38.7127C103.396 38.7127 103.163 38.7534 102.962 38.8338C102.767 38.9152 102.617 39.0308 102.511 39.1798C102.404 39.329 102.349 39.5035 102.353 39.6811H100.36C100.36 39.3786 100.439 39.0919 100.6 38.8209C100.76 38.5453 100.988 38.3011 101.284 38.0893C101.606 37.8624 101.971 37.69 102.361 37.5806C102.782 37.4594 103.254 37.3983 103.776 37.3983C104.392 37.3983 104.942 37.4927 105.423 37.6823C105.909 37.8673 106.29 38.1475 106.567 38.5231C106.847 38.8977 106.988 39.3694 106.988 39.9382V43.1357C106.988 43.5019 107.013 43.8155 107.063 44.0773C107.118 44.3353 107.199 44.5582 107.304 44.7487V44.8634H105.28C105.172 44.6383 105.099 44.4013 105.062 44.1586C105.012 43.8763 104.987 43.5908 104.987 43.3049ZM105.265 40.3988L105.28 41.4625H104.023C103.747 41.4588 103.471 41.4887 103.203 41.5513C102.967 41.6049 102.774 41.6863 102.624 41.7945C102.473 41.8981 102.361 42.0258 102.285 42.1737C102.21 42.319 102.172 42.4836 102.172 42.6686C102.172 42.8489 102.217 43.0117 102.308 43.156C102.403 43.3003 102.539 43.4159 102.714 43.5019C102.895 43.5833 103.106 43.624 103.346 43.624C103.697 43.624 104.004 43.5602 104.265 43.4344C104.504 43.3193 104.713 43.1571 104.874 42.9599C105.019 42.775 105.097 42.5992 105.107 42.4318L105.679 43.2041C105.597 43.4102 105.491 43.6077 105.363 43.7933C105.214 44.0097 105.032 44.2059 104.821 44.376C104.586 44.5649 104.316 44.716 104.023 44.8227C103.679 44.9456 103.311 45.0053 102.94 44.9985C102.413 44.9985 101.942 44.9041 101.526 44.7145C101.126 44.5383 100.786 44.2695 100.54 43.9357C100.297 43.6017 100.171 43.21 100.178 42.811C100.178 42.4226 100.259 42.0794 100.419 41.7807C100.58 41.4828 100.818 41.2322 101.134 41.0287C101.45 40.8215 101.841 40.6652 102.308 40.5616C102.837 40.447 103.381 40.3924 103.926 40.3988H105.265ZM111.267 39.0984V44.8634H109.28V37.5334H111.146L111.267 39.0984ZM110.95 40.9343H110.364C110.362 40.443 110.443 39.9542 110.605 39.485C110.744 39.0787 110.966 38.6994 111.259 38.3667C111.535 38.0626 111.882 37.8174 112.275 37.649C112.685 37.4781 113.133 37.3924 113.584 37.3983C113.976 37.3983 114.329 37.4474 114.645 37.5463C114.961 37.6462 115.232 37.8053 115.458 38.0217C115.688 38.2382 115.864 38.5221 115.984 38.8745C116.109 39.2223 116.172 39.6515 116.172 40.162V44.8634H114.171V40.1482C114.171 39.8143 114.116 39.5497 114.005 39.3555C113.911 39.1713 113.745 39.0245 113.539 38.943C113.303 38.8555 113.049 38.8139 112.794 38.8209C112.488 38.8209 112.22 38.8764 111.989 38.9901C111.763 39.0984 111.573 39.2491 111.418 39.4434C111.267 39.6376 111.152 39.8614 111.071 40.1149C110.989 40.3816 110.948 40.6574 110.95 40.9343ZM121.806 43.5898C122.086 43.5898 122.338 43.5399 122.558 43.4409C122.779 43.341 122.954 43.2013 123.085 43.021C123.223 42.8341 123.298 42.6155 123.303 42.3911H125.176C125.173 42.8681 125.011 43.3331 124.71 43.7258C124.403 44.1236 123.988 44.4449 123.506 44.66C122.987 44.8907 122.414 45.0071 121.836 44.9994C121.209 44.9994 120.662 44.9041 120.196 44.7145C119.744 44.5351 119.345 44.2638 119.029 43.9219C118.717 43.5726 118.482 43.1726 118.338 42.7435C118.184 42.2774 118.108 41.7933 118.112 41.3071V41.0897C118.112 40.5801 118.187 40.101 118.338 39.6542C118.493 39.2066 118.723 38.8135 119.029 38.475C119.345 38.133 119.744 37.8617 120.196 37.6823C120.662 37.4927 121.206 37.3983 121.828 37.3983C122.486 37.3983 123.062 37.513 123.559 37.7433C124.061 37.9746 124.452 38.2983 124.733 38.7191C125.018 39.1391 125.166 39.6339 125.176 40.2027H123.303C123.298 39.9575 123.231 39.7165 123.107 39.4979C122.99 39.2927 122.813 39.1195 122.596 38.9966C122.353 38.8648 122.074 38.799 121.79 38.807C121.454 38.807 121.174 38.8708 120.948 38.9966C120.726 39.1248 120.546 39.3051 120.429 39.5183C120.303 39.749 120.217 39.9957 120.173 40.2499C120.128 40.5163 120.106 40.7965 120.106 41.0897V41.3071C120.106 41.6049 120.128 41.8898 120.173 42.1608C120.223 42.4318 120.308 42.6751 120.429 42.8915C120.555 43.1042 120.727 43.2735 120.948 43.4002C121.174 43.5269 121.46 43.5898 121.806 43.5898ZM130.697 44.9994C130.08 44.9994 129.526 44.9088 129.034 44.7275C128.562 44.5582 128.134 44.3021 127.778 43.9755C127.435 43.6482 127.167 43.264 126.988 42.8443C126.804 42.398 126.712 41.9254 126.716 41.4495V41.1785C126.716 40.6143 126.807 40.101 126.988 39.6404C127.153 39.1992 127.414 38.7918 127.755 38.4417C128.086 38.1068 128.482 37.8497 128.944 37.6693C129.406 37.4881 129.914 37.3983 130.471 37.3983C131.049 37.3983 131.557 37.4862 131.999 37.6619C132.441 37.834 132.809 38.0782 133.105 38.3936C133.401 38.7099 133.624 39.0891 133.774 39.5312C133.925 39.9696 134 40.4562 134 40.988V41.74H127.619V40.508H132.044V40.372C132.038 40.1045 131.977 39.8404 131.863 39.5932C131.76 39.3616 131.582 39.1633 131.352 39.0244C131.12 38.8792 130.823 38.807 130.456 38.807C130.16 38.807 129.902 38.8662 129.681 38.9827C129.465 39.0965 129.285 39.2584 129.14 39.4711C128.989 39.702 128.882 39.954 128.823 40.2166C128.75 40.533 128.715 40.8554 128.719 41.1785V41.4495C128.719 41.7566 128.764 42.0415 128.853 42.3023C128.949 42.565 129.086 42.7925 129.267 42.9868C129.453 43.1764 129.674 43.3253 129.93 43.4344C130.191 43.538 130.487 43.5898 130.817 43.5898C131.207 43.5951 131.593 43.5211 131.946 43.3734C132.287 43.2235 132.583 43.0053 132.834 42.7167L133.835 43.6509C133.642 43.8978 133.408 44.117 133.142 44.3011C132.83 44.5221 132.479 44.6941 132.104 44.8098C131.65 44.9429 131.174 45.0069 130.697 44.9994Z" fill="white"/>
</svg>
