<svg width="273" height="35" viewBox="0 0 273 35" fill="none" xmlns="http://www.w3.org/2000/svg">
<path d="M68.936 27.2023H74.2749V6.63252H81.2565V1.65813H62V6.63252H68.936V27.2023ZM81.2565 27.2023H86.276V18.598C86.276 15.5954 87.8274 13.8028 90.2459 13.8028C91.0673 13.8028 91.7517 13.9373 92.5275 14.2061V9.18695C91.9799 9.0525 91.3867 8.96288 90.8391 8.96288C88.7857 8.96288 86.9148 10.3073 86.276 12.0551V9.18695H81.2565V27.2023ZM102.156 27.6056C104.665 27.6056 106.582 26.3508 107.449 25.1857V27.2023H112.468V9.23175H107.449V11.2484C106.628 10.0832 104.711 8.82842 102.156 8.82842C97.2731 8.82842 93.5314 13.1306 93.5314 18.2394C93.5314 23.3035 97.2731 27.6056 102.156 27.6056ZM103.205 23.1242C100.422 23.1242 98.5965 21.0627 98.5965 18.2394C98.5965 15.4161 100.422 13.3547 103.205 13.3547C105.989 13.3547 107.814 15.4161 107.814 18.2394C107.814 21.0627 105.989 23.1242 103.205 23.1242ZM124.378 27.6056C126.888 27.6056 128.805 26.3508 129.671 25.1857V27.2023H134.691V0.224072H129.671V11.2484C128.85 10.0832 126.934 8.82842 124.378 8.82842C119.496 8.82842 115.754 13.1306 115.754 18.2394C115.8 23.3035 119.496 27.6056 124.378 27.6056ZM125.473 23.1242C122.69 23.1242 120.865 21.0627 120.865 18.2394C120.865 15.4161 122.69 13.3547 125.473 13.3547C128.257 13.3547 130.082 15.4161 130.082 18.2394C130.082 21.0627 128.257 23.1242 125.473 23.1242ZM141.673 6.49808C143.452 6.49808 144.912 5.10884 144.912 3.36108C144.912 1.61332 143.452 0.224072 141.673 0.224072C139.939 0.224072 138.478 1.61332 138.478 3.36108C138.524 5.06402 139.939 6.45327 141.673 6.49808ZM139.208 27.2023H144.228V9.41102H139.208V27.2023ZM148.654 27.2023H153.674V18.4187C153.674 14.968 155.408 13.3099 157.735 13.3099C159.834 13.3099 160.975 14.8784 160.975 17.4776V27.2023H165.994V16.6709C165.994 12.0102 163.348 8.82842 158.921 8.82842C156.548 8.82842 154.678 9.81434 153.674 11.2932V9.23175H148.654V27.2023ZM178.771 22.4072C176.261 22.4072 174.117 20.525 174.117 17.7913C174.117 15.0128 176.216 13.1754 178.771 13.1754C181.281 13.1754 183.425 15.0128 183.425 17.7913C183.425 20.5698 181.326 22.4072 178.771 22.4072ZM178.178 35C183.79 35 188.034 32.1767 188.034 25.7234V9.14213H183.015V11.1588C182.011 9.76953 180.049 8.7388 177.721 8.7388C172.93 8.7388 169.097 12.7721 169.097 17.8361C169.097 22.8553 172.93 26.8886 177.721 26.8886C180.049 26.8886 182.056 25.8579 183.015 24.5134V25.7234C183.015 28.5916 181.053 30.653 178.087 30.653C176.033 30.653 173.98 29.9808 172.383 28.4123L169.645 32.0871C171.744 34.1037 174.984 35 178.178 35ZM198.666 27.2023H203.412L214.181 1.65813H208.34L201.085 19.4046L193.738 1.65813H187.989L198.666 27.2023ZM218.744 6.27401C220.524 6.27401 221.938 4.88476 221.984 3.137C221.984 1.38924 220.524 0 218.744 0C217.01 0 215.55 1.38924 215.55 3.137C215.55 4.88476 217.056 6.27401 218.744 6.27401ZM216.28 27.2023H221.3V9.18695H216.28V27.2023ZM234.259 27.6056C238.092 27.6056 241.012 26.0371 242.746 23.5723L239.005 20.8387C238.183 22.0935 236.586 23.1242 234.259 23.1242C231.84 23.1242 229.696 21.7798 229.376 19.3598H243.066C243.157 18.598 243.157 18.105 243.157 17.6569C243.157 11.7862 238.959 8.82842 234.122 8.82842C228.555 8.82842 224.494 12.9065 224.494 18.1946C224.585 23.886 228.829 27.6056 234.259 27.6056ZM229.604 16.0435C230.106 13.8476 232.16 12.9065 234.031 12.9065C235.902 12.9065 237.727 13.8924 238.183 16.0435H229.604ZM262.003 27.2023H266.977L273 9.18695H267.615L264.193 20.7042L260.451 9.18695H256.618L252.922 20.7042L249.454 9.18695H244.115L250.184 27.2023H255.158L258.58 16.9846L262.003 27.2023Z" fill="white"/>
<path d="M20.1101 27H10.0551V11.7368H0V2H20.0648V27H20.1101ZM40.2203 27H28.7611L39.5409 2H51L40.2203 27ZM28.7158 2C31.8863 2 34.468 4.50001 34.468 7.57018C34.468 10.6404 31.8863 13.1403 28.7158 13.1403C25.5453 13.1403 22.9636 10.6404 22.9636 7.57018C23.0089 4.50001 25.5453 2 28.7158 2Z" fill="white"/>
</svg>
