<?xml version="1.0" encoding="utf-8"?>
<!-- Generator: Adobe Illustrator 19.0.0, SVG Export Plug-In . SVG Version: 6.00 Build 0)  -->
<svg version="1.1" id="layer" xmlns="http://www.w3.org/2000/svg" xmlns:xlink="http://www.w3.org/1999/xlink" x="0px" y="0px"
	 viewBox="-153 -46 652 652" style="enable-background:new -153 -46 652 652;" xml:space="preserve">
<path d="M26.2,300.9h11.7V255h15.3v-11.1H11V255h15.2V300.9z M53.2,300.9h11v-19.2c0-6.7,3.4-10.7,8.7-10.7c1.8,0,3.3,0.3,5,0.9
	v-11.2c-1.2-0.3-2.5-0.5-3.7-0.5c-4.5,0-8.6,3-10,6.9v-6.4h-11V300.9z M99,301.8c5.5,0,9.7-2.8,11.6-5.4v4.5h11v-40.1h-11v4.5
	c-1.8-2.6-6-5.4-11.6-5.4c-10.7,0-18.9,9.6-18.9,21C80.1,292.2,88.3,301.8,99,301.8L99,301.8z M101.3,291.8
	c-6.1,0-10.1-4.6-10.1-10.9c0-6.3,4-10.9,10.1-10.9c6.1,0,10.1,4.6,10.1,10.9C111.4,287.2,107.4,291.8,101.3,291.8L101.3,291.8z
	 M147.7,301.8c5.5,0,9.7-2.8,11.6-5.4v4.5h11v-60.2h-11v24.6c-1.8-2.6-6-5.4-11.6-5.4c-10.7,0-18.9,9.6-18.9,21
	C128.9,292.2,137,301.8,147.7,301.8L147.7,301.8z M150.1,291.8c-6.1,0-10.1-4.6-10.1-10.9c0-6.3,4-10.9,10.1-10.9
	c6.1,0,10.1,4.6,10.1,10.9C160.2,287.2,156.2,291.8,150.1,291.8L150.1,291.8z M185.6,254.7c3.9,0,7.1-3.1,7.1-7c0-3.9-3.2-7-7.1-7
	c-3.8,0-7,3.1-7,7C178.7,251.5,181.8,254.6,185.6,254.7L185.6,254.7z M180.2,300.9h11v-39.7h-11V300.9z M200.9,300.9h11v-19.6
	c0-7.7,3.8-11.4,8.9-11.4c4.6,0,7.1,3.5,7.1,9.3v21.7h11v-23.5c0-10.4-5.8-17.5-15.5-17.5c-5.2,0-9.3,2.2-11.5,5.5v-4.6h-11V300.9z
	 M266.9,290.2c-5.5,0-10.2-4.2-10.2-10.3c0-6.2,4.6-10.3,10.2-10.3c5.5,0,10.2,4.1,10.2,10.3C277.1,286.1,272.5,290.2,266.9,290.2
	L266.9,290.2z M265.6,318.3c12.3,0,21.6-6.3,21.6-20.7v-37h-11v4.5c-2.2-3.1-6.5-5.4-11.6-5.4c-10.5,0-18.9,9-18.9,20.3
	c0,11.2,8.4,20.2,18.9,20.2c5.1,0,9.5-2.3,11.6-5.3v2.7c0,6.4-4.3,11-10.8,11c-4.5,0-9-1.5-12.5-5l-6,8.2
	C251.5,316.3,258.6,318.3,265.6,318.3L265.6,318.3z M310.5,300.9h10.4l23.6-57h-12.8l-15.9,39.6l-16.1-39.6h-12.6L310.5,300.9z
	 M354.5,254.2c3.9,0,7-3.1,7.1-7c0-3.9-3.2-7-7.1-7c-3.8,0-7,3.1-7,7C347.5,251.1,350.8,254.2,354.5,254.2L354.5,254.2z
	 M349.1,300.9h11v-40.2h-11V300.9z M388.5,301.8c8.4,0,14.8-3.5,18.6-9l-8.2-6.1c-1.8,2.8-5.3,5.1-10.4,5.1c-5.3,0-10-3-10.7-8.4h30
	c0.2-1.7,0.2-2.8,0.2-3.8c0-13.1-9.2-19.7-19.8-19.7c-12.2,0-21.1,9.1-21.1,20.9C367.3,293.5,376.6,301.8,388.5,301.8L388.5,301.8z
	 M378.3,276c1.1-4.9,5.6-7,9.7-7c4.1,0,8.1,2.2,9.1,7H378.3z M449.3,300.9h10.9l13.2-40.2h-11.8l-7.5,25.7l-8.2-25.7h-8.4l-8.1,25.7
	l-7.6-25.7h-11.7l13.3,40.2h10.9l7.5-22.8L449.3,300.9z M449.3,300.9" style="fill: white;"/>
<path d="M-82.2,300.9h-22.2v-34.8h-22.2v-22.2h44.3V300.9z M-37.8,300.9h-25.3l23.8-57h25.3L-37.8,300.9z M-63.2,243.9
	c7,0,12.7,5.7,12.7,12.7c0,7-5.7,12.7-12.7,12.7s-12.7-5.7-12.7-12.7C-75.8,249.6-70.2,243.9-63.2,243.9z" style="fill: white;"/>
</svg>
