<svg width="439" height="82" viewBox="0 0 439 82" fill="none" xmlns="http://www.w3.org/2000/svg">
<path d="M63.6276 81.6002H105.679V66.4002H76.3307V47.8002H100.642V32.6002H76.3307V15.4002H105.825V0.200195H63.6276V81.6002ZM156.272 51.4002L128.749 0.200195H109.767L115.681 10.5002V81.8002H128.384V28.4002L156.856 81.6002H168.975V0.200195H156.272V51.4002ZM44.427 39.7002C49.9754 38.2002 54.6478 31.1002 54.6478 21.1002C54.5748 10.3002 48.8804 0.200195 37.4184 0.200195H0.550293L6.24477 10.2002V81.6002H38.6595C50.1215 81.6002 56.035 71.8002 56.035 59.5002C55.8889 49.5002 50.8515 40.9002 44.427 39.7002ZM19.0208 15.5002H34.9362C39.2435 15.5002 41.9448 18.9002 41.9448 24.1002C41.9448 29.2002 39.2435 32.7002 34.9362 32.7002H19.0208V15.5002ZM35.5202 66.5002H19.0938V47.8002H35.5202C40.3386 47.8002 43.0399 52.0002 43.0399 57.1002C43.0399 63.0002 40.1926 66.4002 35.5202 66.5002ZM354.922 51.4002H361.566V61.0002C358.134 64.9002 353.827 67.0002 349.374 67.1002C338.788 67.1002 331.268 56.1002 331.268 41.1002C331.268 26.2002 338.788 15.1002 349.374 15.1002C354.922 15.2002 360.033 19.0002 362.953 25.4002L372.955 17.8002C368.647 8.5002 361.128 0.200195 349.155 0.200195C332.363 0.200195 318.346 16.1002 318.346 40.9002C318.346 65.7002 332.144 81.6002 349.155 81.6002C358.426 81.8002 367.333 76.4002 373.466 66.9002V36.8002H346.38L354.922 51.4002ZM297.685 51.4002L270.089 0.200195H251.107L257.021 10.5002V81.8002H269.724V28.4002L298.196 81.6002H310.388V0.200195H297.685V51.4002ZM415.59 0.200195H391.06L396.974 10.5002L395.879 14.4002L376.897 81.8002H391.206L394.929 68.1002H420.555L424.278 81.8002H438.587L415.59 0.200195ZM398.288 52.7002L407.56 17.6002L416.831 52.7002H398.288ZM231.104 0.200195H243.807V81.8002H231.104V0.200195ZM220.883 14.2002V0.200195H176.13V15.4002H204.237L176.13 67.6002V81.6002H221.394V66.4002H192.556L220.883 14.2002Z" fill="#126196"/>
</svg>
