<svg width="218" height="80" viewBox="0 0 218 80" fill="none" xmlns="http://www.w3.org/2000/svg">
<path fill-rule="evenodd" clip-rule="evenodd" d="M78.1475 24.0741V48.1482H84.0593H89.9712V38.8889C89.9712 32.7778 89.9712 29.4445 89.9712 29.0741C90.1559 28.1482 90.3407 27.2223 90.8949 26.4816C91.6339 25.1853 92.9271 24.6297 94.4051 24.8149C96.4373 25.0001 97.7305 26.1112 98.1 28.5186C98.1 28.889 98.1 32.5927 98.1 38.5186V47.963H104.012H109.924V36.8519C109.924 27.4075 109.924 25.5556 109.739 24.6297C109.369 21.2964 108.261 18.7038 106.229 16.8519C104.566 15.1853 102.534 14.2593 100.132 13.889C99.2085 13.7038 96.622 13.889 95.8831 14.0742C93.6661 14.6297 92.0034 15.3705 90.5254 17.0371L89.6017 17.7779V8.88898V0.000104584H83.6898L78.1475 0V12.0371V24.0741ZM203.775 0.370476C203.405 1.11122 191.397 30.1853 191.397 30.1853C191.397 30.1853 194.537 30.1853 198.417 30.1853H205.437L211.719 15.1853C215.229 6.85195 218 0.000104584 218 0.000104584C218 0.000104584 214.859 0.000104584 210.98 0.000104584H203.959L203.775 0.370476ZM52.2831 14.0742C49.6966 14.4445 47.6644 15.1853 45.6322 16.4816C41.5678 19.0742 38.9814 23.5186 38.2424 28.7038C37.8729 31.1112 38.0576 34.0741 38.6119 36.2964C40.0898 42.0371 43.9695 46.4815 48.9576 48.1482C50.8051 48.7037 51.5441 48.8889 53.761 48.8889C55.4237 48.8889 55.978 48.8889 56.5322 48.7037C58.9339 48.1482 60.5966 47.2223 62.0746 45.7408L62.8136 45V46.4815V47.963H68.5407H74.2678V31.2964V14.6297H68.5407H62.8136V16.1112V17.5927L62.2593 17.0371C60.9661 15.5556 59.1186 14.6297 56.717 14.0742C55.978 13.889 55.6085 13.889 54.1305 13.889C53.2068 14.0742 52.4678 14.0742 52.2831 14.0742ZM127.659 14.0742C124.519 14.4445 121.193 15.926 118.792 17.7779C114.173 21.6667 111.771 27.7779 112.695 34.0741C113.619 41.1112 118.607 46.4815 125.627 48.3334C127.105 48.7037 128.583 48.8889 130.431 48.8889C133.756 48.8889 136.158 48.3334 138.744 47.0371C143.917 44.4445 147.242 39.8149 147.981 34.0741C148.166 32.5927 148.166 30.1852 147.981 28.889C147.612 26.1112 146.503 23.3334 144.841 21.1112C144.102 20.1853 142.624 18.5186 141.7 17.7779C139.114 15.7408 136.158 14.4445 132.832 14.0742C131.539 13.889 128.953 13.889 127.659 14.0742ZM165.347 14.0742C162.207 14.4445 159.066 15.7408 156.664 17.7779C155.741 18.5186 154.078 20.1853 153.524 21.1112C151.861 23.3334 150.937 26.1112 150.383 28.889C150.198 30.1852 150.198 32.7778 150.383 34.0741C151.492 41.4815 156.849 47.2223 164.239 48.7037C165.717 49.0741 166.456 49.0741 168.119 49.0741C171.259 49.0741 174.031 48.5186 176.617 47.0371C183.453 43.5186 187.147 35.7408 185.485 27.7778C184.007 20.3704 178.095 15.0001 170.52 14.0742C169.227 13.889 166.641 13.889 165.347 14.0742ZM0 14.8149C0 14.8149 3.14068 22.4075 7.02034 31.6667C10.9 40.926 14.0407 48.5186 14.0407 48.5186C14.0407 48.5186 12.9322 51.2963 11.4542 54.6297C9.97627 57.963 8.8678 60.5556 8.8678 60.7408C8.8678 60.926 11.639 60.7408 15.1492 60.7408H21.4305L30.8525 37.963C36.0254 25.3704 40.2746 15.1853 40.2746 15.0001C40.2746 15.0001 38.9814 14.8149 33.9932 15.0001H27.7119L23.8322 24.6297C22.1695 29.8149 20.5068 34.2593 20.5068 34.2593C20.5068 34.2593 18.8441 29.8149 16.6271 24.6297L12.9322 15.0001H6.4661C2.95593 14.8149 0 14.8149 0 14.8149ZM58.0102 24.8149C60.4119 25.3704 62.2593 27.2223 62.9983 29.6297C63.183 30.5556 63.183 32.2223 62.9983 33.1482C62.4441 35.5556 60.5966 37.4075 58.1949 37.963C57.2712 38.1482 55.6085 38.1482 54.6847 37.963C52.6525 37.4075 50.8051 35.926 50.0661 34.0741C49.1424 32.0371 49.5119 29.4445 50.6203 27.5927C52.2831 25.1853 55.0542 24.2593 58.0102 24.8149ZM131.724 25.0001C134.31 25.3704 136.342 27.4075 136.897 30.0001C137.081 30.926 137.081 32.4075 136.897 33.3334C136.342 35.7408 134.495 37.4075 132.278 38.1482C131.539 38.3334 129.507 38.3334 128.768 38.1482C126.92 37.5926 125.442 36.2964 124.519 34.6297C123.964 33.5186 123.964 32.963 123.964 31.6667C123.964 30.5556 124.149 30.0001 124.519 29.0741C125.073 27.963 125.812 26.8519 126.92 26.1112C128.029 25.0001 129.876 24.6297 131.724 25.0001ZM169.227 25.0001C171.444 25.3704 173.292 26.8519 174.031 28.889C174.4 29.8149 174.585 30.3704 174.585 31.4815C174.585 32.7778 174.4 33.3334 174.031 34.4445C173.292 36.1112 171.629 37.4075 169.781 37.963C169.042 38.1482 167.01 38.1482 166.271 37.963C164.054 37.4075 162.207 35.5556 161.653 33.1482C161.468 32.2223 161.468 30.5556 161.653 29.6297C162.392 26.6667 164.978 24.6297 167.934 24.6297C168.303 24.8149 168.858 24.8149 169.227 25.0001ZM194.353 33.1482C190.842 33.5186 188.256 36.1112 187.517 39.4445C187.332 40.3704 187.332 42.0371 187.517 42.963C188.256 45.926 190.473 47.963 193.429 48.7037C193.798 48.7037 194.537 48.8889 195.092 48.8889C197.308 48.8889 199.156 48.1482 200.634 46.6667C202.297 45.0001 202.851 43.3334 202.851 41.1112C202.851 38.3334 201.558 35.926 199.341 34.6297C197.863 33.3334 195.831 32.963 194.353 33.1482ZM96.9915 51.2963C94.5898 52.0371 93.4814 54.8149 94.7746 56.8519C95.1441 57.4074 95.883 58.1482 96.4373 58.3334C96.9915 58.5186 96.9915 58.5185 98.1 58.5185C99.0237 58.5185 99.2085 58.5186 99.7627 58.3334C100.502 57.963 101.241 57.2223 101.61 56.4815C102.534 54.6297 101.61 52.4074 99.7627 51.4815C99.2085 51.1112 99.0237 51.1112 98.2847 51.1112C97.5458 51.1112 97.361 51.1112 96.9915 51.2963ZM87.0153 51.4815C83.8746 52.0371 81.8424 54.0741 80.9186 57.4074C80.7339 57.963 80.7339 58.5186 80.7339 59.2593V60.5556H79.4407H78.1475V63.3334V66.1111H79.4407H80.7339V72.7778V79.4445H84.2441H87.7542V72.7778V66.1111H90.1559H92.5576V63.3334V60.5556H90.1559H87.7542V60C87.939 58.7037 88.4932 57.7778 89.6017 57.5926C90.3407 57.4074 91.4492 57.4074 92.1881 57.7778C92.5576 57.963 92.7424 57.963 92.7424 57.963C92.7424 57.963 92.7424 56.6667 92.7424 55V52.0371L92.1881 51.8519C91.4492 51.4815 90.5254 51.4815 89.2322 51.4815C88.3085 51.2963 87.5695 51.4815 87.0153 51.4815ZM115.097 60.1852C113.619 60.5556 112.51 61.2963 111.771 62.2222L111.402 62.7778V61.6667V60.5556H107.892H104.381V70V79.4445H107.892H111.402V74.2593C111.402 71.2963 111.402 68.8889 111.402 68.5185C111.586 67.7778 111.956 67.0371 112.325 66.6667C113.249 65.926 114.912 66.1111 115.651 67.0371C116.205 67.7778 116.205 67.7778 116.205 73.7037V79.2593H119.715H123.225V72.963C123.225 66.2963 123.225 65.5556 122.856 64.2593C122.486 63.1482 122.117 62.2222 121.193 61.4815C120.454 60.7408 119.715 60.1852 118.607 60C117.683 60 115.836 60 115.097 60.1852ZM132.647 60C131.539 60.1852 129.876 60.7408 128.953 61.4815C126.92 62.963 125.627 65.1852 125.073 67.963C124.888 69.0741 124.888 71.1111 125.073 72.2222C125.442 73.8889 125.997 75.5556 126.92 76.6667C128.214 78.3333 129.876 79.4444 131.908 79.8148C133.017 80 134.864 80 135.788 79.6296C136.897 79.2593 137.636 78.8889 138.559 78.1482L139.298 77.4074V78.3333V79.2593H142.808H146.319V69.8148V60.3704H142.808H139.298V61.2963V62.2222L138.744 62.0371C137.82 61.1111 136.527 60.3704 135.049 60.1852C134.495 60 133.202 60 132.647 60ZM159.436 60.1852C158.142 60.3704 156.849 61.2963 156.11 62.2222L155.741 62.5926V61.4815V60.3704H152.231H148.72V69.8148V79.2593H152.231H155.741V73.8889C155.741 68.1482 155.741 68.1482 156.11 67.2223C156.48 66.4815 157.219 66.1111 157.958 66.1111C158.697 66.1111 159.066 66.2963 159.62 66.6667C160.359 67.4074 160.359 67.2222 160.359 73.5185V79.0741H163.869H167.38V72.2222C167.38 65.3704 167.38 65.3704 167.195 64.6297C167.01 64.2593 166.825 63.5185 166.641 62.963C166.271 62.2223 166.086 62.0371 165.532 61.4815C164.793 60.7408 164.239 60.3704 163.5 60C162.207 60 160.729 59.8148 159.436 60.1852ZM177.725 60.1852C174.585 60.7408 172.183 62.2223 170.705 64.8148C170.336 65.5556 169.966 66.4815 169.597 67.4074C169.412 68.3334 169.412 68.5185 169.412 70C169.412 71.6667 169.412 72.2222 169.966 73.5185C171.075 76.6667 173.661 79.0741 177.171 79.8148C177.725 80 178.28 80 179.573 80C181.42 80 182.159 79.8148 183.453 79.2593L184.192 78.8889V75.7408V72.5926L183.637 72.963C182.714 73.5185 182.159 73.7037 181.051 73.7037C179.942 73.7037 179.388 73.7037 178.649 73.3333C177.91 72.963 177.356 72.4074 176.986 71.6667C176.802 71.1111 176.802 71.1111 176.802 70.1852C176.802 69.4445 176.802 69.2593 176.986 68.7037C177.541 67.2222 178.834 66.4815 180.681 66.2963C181.975 66.2963 182.529 66.2963 184.376 67.2223C184.376 67.2223 184.376 65.7408 184.376 64.0741V60.926L183.822 60.7408C181.79 60 179.573 59.8148 177.725 60.1852ZM193.614 60.1852C188.256 61.1111 184.931 65.7408 185.3 71.1111C185.485 72.963 186.039 74.6296 186.963 75.9259C188.256 77.963 190.288 79.2593 192.875 79.8148C193.983 80 196.939 80 198.232 79.8148C200.08 79.4444 201.742 78.5185 203.036 77.2222C203.59 76.6667 204.514 75.3704 204.514 75.3704C204.514 75.3704 203.22 74.8148 201.558 74.2593L198.602 73.1482L198.232 73.5185C197.678 74.0741 197.308 74.2593 196.569 74.4445C194.537 75 192.505 73.8889 192.136 72.0371V71.6667H198.602H205.068V70C205.068 68.8889 205.068 68.1482 204.883 67.7778C204.514 65.5556 203.59 64.0741 202.297 62.5926C201.003 61.2963 199.525 60.5556 197.493 60.1852C196.754 60 194.537 60 193.614 60.1852ZM94.5898 70V79.4445H98.1H101.61V70V60.5556H98.1H94.5898V70ZM196.385 65.3704C196.939 65.5556 197.124 65.7408 197.678 66.1111C198.047 66.4815 198.417 66.8519 198.417 67.4074V67.7778H195.276C191.766 67.7778 191.951 67.7778 192.32 67.0371C192.875 65.7408 194.537 65 196.385 65.3704ZM136.712 66.2963C137.636 66.4815 138.744 67.4074 139.114 68.3334C140.037 70.3704 139.114 72.7778 136.897 73.5185C136.158 73.7037 135.049 73.7037 134.31 73.5185C133.202 73.1482 132.093 72.2222 131.908 71.1111C131.724 70.5556 131.724 70.3704 131.724 69.8148C131.724 69.0741 131.724 68.8889 132.093 68.3334C132.832 66.6667 134.68 65.926 136.712 66.2963Z" fill="#5F02D2"/>
</svg>
