<svg width="32" height="32" viewBox="0 0 32 32" fill="none" xmlns="http://www.w3.org/2000/svg">
<path d="M31.4284 30.628C31.5011 30.8097 31.5189 31.0088 31.4796 31.2006C31.4403 31.3923 31.3455 31.5683 31.2071 31.7067C31.0687 31.8452 30.8927 31.9399 30.7009 31.9792C30.5092 32.0186 30.3101 32.0008 30.1284 31.928L1.03437 20.29C0.778151 20.1875 0.555193 20.0162 0.390035 19.7951C0.224877 19.574 0.123923 19.3116 0.0982844 19.0368C0.0726454 18.762 0.123315 18.4855 0.244718 18.2376C0.36612 17.9898 0.553547 17.7802 0.786372 17.632L10.7764 11.276L13.8384 6.46402C13.983 6.24568 14.2075 6.09278 14.4636 6.03818C14.7198 5.98359 14.9871 6.03166 15.2082 6.17206C15.4293 6.31246 15.5864 6.53399 15.6459 6.78903C15.7054 7.04408 15.6625 7.31229 15.5264 7.53602L12.7744 11.86L27.7624 26.848L23.9724 17.372C23.9203 17.2496 23.8932 17.1179 23.8926 16.9849C23.8921 16.8518 23.9181 16.72 23.9692 16.5971C24.0202 16.4742 24.0953 16.3627 24.19 16.2692C24.2846 16.1757 24.397 16.102 24.5206 16.0525C24.6441 16.003 24.7762 15.9787 24.9093 15.9809C25.0423 15.9831 25.1736 16.0118 25.2954 16.0654C25.4172 16.119 25.5271 16.1964 25.6186 16.293C25.7101 16.3896 25.7814 16.5035 25.8284 16.628L31.4284 30.628ZM26.3484 28.262L11.3604 13.274L2.68237 18.796L26.3484 28.262Z" fill="#FCBF07"/>
<path d="M24.5 0C26.3565 0 28.137 0.737498 29.4497 2.05025C30.7625 3.36301 31.5 5.14348 31.5 7C31.5 8.85652 30.7625 10.637 29.4497 11.9497C28.137 13.2625 26.3565 14 24.5 14C22.6435 14 20.863 13.2625 19.5503 11.9497C18.2375 10.637 17.5 8.85652 17.5 7C17.5 5.14348 18.2375 3.36301 19.5503 2.05025C20.863 0.737498 22.6435 0 24.5 0ZM25.5 10V7C25.5 6.73478 25.3946 6.48043 25.2071 6.29289C25.0196 6.10536 24.7652 6 24.5 6C24.2348 6 23.9804 6.10536 23.7929 6.29289C23.6054 6.48043 23.5 6.73478 23.5 7V10C23.5 10.2652 23.6054 10.5196 23.7929 10.7071C23.9804 10.8946 24.2348 11 24.5 11C24.7652 11 25.0196 10.8946 25.2071 10.7071C25.3946 10.5196 25.5 10.2652 25.5 10ZM25.5 4C25.5 3.73478 25.3946 3.48043 25.2071 3.29289C25.0196 3.10536 24.7652 3 24.5 3C24.2348 3 23.9804 3.10536 23.7929 3.29289C23.6054 3.48043 23.5 3.73478 23.5 4C23.5 4.26522 23.6054 4.51957 23.7929 4.70711C23.9804 4.89464 24.2348 5 24.5 5C24.7652 5 25.0196 4.89464 25.2071 4.70711C25.3946 4.51957 25.5 4.26522 25.5 4Z" fill="#FCBF07"/>
</svg>
