<svg width="32" height="32" viewBox="0 0 32 32" fill="none" xmlns="http://www.w3.org/2000/svg">
<path d="M31.4279 1.37198C31.5006 1.19025 31.5184 0.99117 31.4791 0.799417C31.4398 0.607665 31.345 0.431673 31.2066 0.29326C31.0682 0.154847 30.8922 0.0600998 30.7004 0.0207649C30.5087 -0.01857 30.3096 -0.000762977 30.1279 0.0719784L1.03388 11.71C0.777663 11.8125 0.554704 11.9838 0.389547 12.2049C0.224389 12.426 0.123435 12.6884 0.0977961 12.9632C0.0721571 13.238 0.122827 13.5145 0.244229 13.7624C0.365631 14.0102 0.553059 14.2198 0.785884 14.368L10.7759 20.724L13.8379 25.536C13.9825 25.7543 14.207 25.9072 14.4631 25.9618C14.7193 26.0164 14.9866 25.9683 15.2077 25.8279C15.4288 25.6875 15.586 25.466 15.6455 25.211C15.7049 24.9559 15.662 24.6877 15.5259 24.464L12.7739 20.14L27.7619 5.15198L23.9719 14.628C23.9198 14.7504 23.8927 14.8821 23.8922 15.0151C23.8916 15.1482 23.9176 15.28 23.9687 15.4029C24.0197 15.5258 24.0948 15.6373 24.1895 15.7308C24.2842 15.8243 24.3966 15.898 24.5201 15.9475C24.6436 15.997 24.7757 16.0213 24.9088 16.0191C25.0418 16.0169 25.1731 15.9882 25.2949 15.9346C25.4167 15.881 25.5266 15.8036 25.6181 15.707C25.7096 15.6104 25.7809 15.4965 25.8279 15.372L31.4279 1.37198ZM26.3479 3.73798L11.3599 18.726L2.68188 13.204L26.3479 3.73798Z" fill="#FCBF07"/>
<path d="M24.5 32C26.3565 32 28.137 31.2625 29.4497 29.9497C30.7625 28.637 31.5 26.8565 31.5 25C31.5 23.1435 30.7625 21.363 29.4497 20.0503C28.137 18.7375 26.3565 18 24.5 18C22.6435 18 20.863 18.7375 19.5503 20.0503C18.2375 21.363 17.5 23.1435 17.5 25C17.5 26.8565 18.2375 28.637 19.5503 29.9497C20.863 31.2625 22.6435 32 24.5 32ZM25.5 22V25C25.5 25.2652 25.3946 25.5196 25.2071 25.7071C25.0196 25.8946 24.7652 26 24.5 26C24.2348 26 23.9804 25.8946 23.7929 25.7071C23.6054 25.5196 23.5 25.2652 23.5 25V22C23.5 21.7348 23.6054 21.4804 23.7929 21.2929C23.9804 21.1054 24.2348 21 24.5 21C24.7652 21 25.0196 21.1054 25.2071 21.2929C25.3946 21.4804 25.5 21.7348 25.5 22ZM25.5 28C25.5 28.2652 25.3946 28.5196 25.2071 28.7071C25.0196 28.8946 24.7652 29 24.5 29C24.2348 29 23.9804 28.8946 23.7929 28.7071C23.6054 28.5196 23.5 28.2652 23.5 28C23.5 27.7348 23.6054 27.4804 23.7929 27.2929C23.9804 27.1054 24.2348 27 24.5 27C24.7652 27 25.0196 27.1054 25.2071 27.2929C25.3946 27.4804 25.5 27.7348 25.5 28Z" fill="#FCBF07"/>
</svg>
