<svg width="32" height="32" viewBox="0 0 32 32" fill="none" xmlns="http://www.w3.org/2000/svg">
<path d="M31.4279 30.628C31.5006 30.8097 31.5184 31.0088 31.4791 31.2006C31.4398 31.3923 31.345 31.5683 31.2066 31.7067C31.0682 31.8452 30.8922 31.9399 30.7004 31.9792C30.5087 32.0186 30.3096 32.0008 30.1279 31.928L1.03388 20.29C0.777663 20.1875 0.554704 20.0162 0.389547 19.7951C0.224389 19.574 0.123435 19.3116 0.0977961 19.0368C0.0721571 18.762 0.122827 18.4855 0.244229 18.2376C0.365631 17.9898 0.553059 17.7802 0.785884 17.632L10.7759 11.276L13.8379 6.46402C13.9825 6.24568 14.207 6.09278 14.4631 6.03818C14.7193 5.98359 14.9866 6.03166 15.2077 6.17206C15.4288 6.31246 15.586 6.53399 15.6455 6.78903C15.7049 7.04408 15.662 7.31229 15.5259 7.53602L12.7739 11.86L27.7619 26.848L23.9719 17.372C23.9198 17.2496 23.8927 17.1179 23.8922 16.9849C23.8916 16.8518 23.9176 16.72 23.9687 16.5971C24.0197 16.4742 24.0948 16.3627 24.1895 16.2692C24.2842 16.1757 24.3966 16.102 24.5201 16.0525C24.6436 16.003 24.7757 15.9787 24.9088 15.9809C25.0418 15.9831 25.1731 16.0118 25.2949 16.0654C25.4167 16.119 25.5266 16.1964 25.6181 16.293C25.7096 16.3896 25.7809 16.5035 25.8279 16.628L31.4279 30.628ZM26.3479 28.262L11.3599 13.274L2.68188 18.796L26.3479 28.262Z" fill="#6A6A6A"/>
<path d="M24.5 0C26.3565 0 28.137 0.737498 29.4497 2.05025C30.7625 3.36301 31.5 5.14348 31.5 7C31.5 8.85652 30.7625 10.637 29.4497 11.9497C28.137 13.2625 26.3565 14 24.5 14C22.6435 14 20.863 13.2625 19.5503 11.9497C18.2375 10.637 17.5 8.85652 17.5 7C17.5 5.14348 18.2375 3.36301 19.5503 2.05025C20.863 0.737498 22.6435 0 24.5 0ZM25.5 10V7C25.5 6.73478 25.3946 6.48043 25.2071 6.29289C25.0196 6.10536 24.7652 6 24.5 6C24.2348 6 23.9804 6.10536 23.7929 6.29289C23.6054 6.48043 23.5 6.73478 23.5 7V10C23.5 10.2652 23.6054 10.5196 23.7929 10.7071C23.9804 10.8946 24.2348 11 24.5 11C24.7652 11 25.0196 10.8946 25.2071 10.7071C25.3946 10.5196 25.5 10.2652 25.5 10ZM25.5 4C25.5 3.73478 25.3946 3.48043 25.2071 3.29289C25.0196 3.10536 24.7652 3 24.5 3C24.2348 3 23.9804 3.10536 23.7929 3.29289C23.6054 3.48043 23.5 3.73478 23.5 4C23.5 4.26522 23.6054 4.51957 23.7929 4.70711C23.9804 4.89464 24.2348 5 24.5 5C24.7652 5 25.0196 4.89464 25.2071 4.70711C25.3946 4.51957 25.5 4.26522 25.5 4Z" fill="#6A6A6A"/>
</svg>
