<svg width="191" height="60" viewBox="0 0 191 60" fill="none" xmlns="http://www.w3.org/2000/svg">
<rect x="0.0498047" width="190" height="60" rx="8" fill="black"/>
<path d="M36.6442 39.006C36.0154 38.972 35.4237 38.6978 34.9912 38.24C34.4738 37.7423 34.0121 37.1897 33.6142 36.592C32.9927 35.702 32.5014 34.7279 32.1552 33.699C31.7634 32.5922 31.5573 31.4281 31.5452 30.254C31.5147 29.102 31.8 27.9636 32.3702 26.962C32.7877 26.2401 33.3834 25.6373 34.1002 25.211C34.8091 24.7866 35.618 24.5581 36.4442 24.549C37.067 24.5859 37.679 24.7282 38.2542 24.97C38.7132 25.172 39.1952 25.314 39.6902 25.392C40.2362 25.2776 40.7697 25.1102 41.2832 24.892C41.8908 24.6548 42.5342 24.5219 43.1862 24.499C43.2732 24.499 43.3592 24.499 43.4422 24.509C44.8722 24.55 46.2022 25.252 47.0422 26.409C46.3866 26.7597 45.8411 27.2852 45.4663 27.9273C45.0915 28.5693 44.9021 29.3028 44.9192 30.046C44.9126 30.6144 45.0266 31.1776 45.2536 31.6987C45.4806 32.2198 45.8155 32.6868 46.2362 33.069C46.6191 33.4338 47.065 33.7262 47.5522 33.932C47.4522 34.232 47.3372 34.522 47.2152 34.814C46.9382 35.4593 46.5964 36.0748 46.1952 36.651C45.8158 37.2283 45.3741 37.7622 44.8782 38.243C44.4258 38.6919 43.8228 38.9567 43.1862 38.986C42.6465 38.9621 42.1164 38.8355 41.6242 38.613C41.0934 38.3818 40.523 38.2551 39.9442 38.24C39.3491 38.2518 38.7618 38.3777 38.2142 38.611C37.7412 38.8244 37.2359 38.9572 36.7192 39.004L36.6442 39.006ZM39.7942 24.499C39.7192 24.499 39.6442 24.499 39.5692 24.49C39.5534 24.371 39.545 24.2511 39.5442 24.131C39.5769 23.1322 39.9672 22.1783 40.6442 21.443C41.0228 21.0205 41.4817 20.6775 41.9942 20.434C42.4717 20.1882 42.9936 20.0403 43.5292 19.999C43.5442 20.13 43.5442 20.258 43.5442 20.38C43.5301 21.3632 43.1607 22.308 42.5042 23.04C42.1863 23.4662 41.779 23.8177 41.3108 24.0698C40.8427 24.3218 40.325 24.4683 39.7942 24.499Z" fill="white"/>
<path d="M64.0938 37H61.9972L66.7082 23.9091H68.9901L73.7011 37H71.6045L67.9035 26.2869H67.8012L64.0938 37ZM64.4454 31.8736H71.2465V33.5355H64.4454V31.8736ZM75.4381 40.6818V27.1818H77.3046V28.7734H77.4644C77.5752 28.5689 77.735 28.3324 77.9438 28.0639C78.1526 27.7955 78.4424 27.5611 78.8131 27.3608C79.1839 27.1562 79.6739 27.054 80.2833 27.054C81.0759 27.054 81.7833 27.2543 82.4055 27.6548C83.0276 28.0554 83.5155 28.6328 83.8692 29.3871C84.2272 30.1413 84.4062 31.049 84.4062 32.1101C84.4062 33.1712 84.2293 34.081 83.8756 34.8395C83.5219 35.5937 83.0361 36.1754 82.4182 36.5845C81.8003 36.9893 81.0951 37.1918 80.3025 37.1918C79.7059 37.1918 79.218 37.0916 78.8387 36.8913C78.4637 36.6911 78.1697 36.4567 77.9566 36.1882C77.7435 35.9197 77.5795 35.6811 77.4644 35.4723H77.3493V40.6818H75.4381ZM77.311 32.0909C77.311 32.7812 77.4111 33.3864 77.6114 33.9062C77.8117 34.4261 78.1015 34.8331 78.4807 35.1271C78.86 35.4169 79.3245 35.5618 79.8742 35.5618C80.4452 35.5618 80.9225 35.4105 81.306 35.108C81.6895 34.8011 81.9793 34.3857 82.1753 33.8615C82.3756 33.3374 82.4758 32.7472 82.4758 32.0909C82.4758 31.4432 82.3778 30.8615 82.1817 30.3459C81.99 29.8303 81.7002 29.4233 81.3124 29.125C80.9289 28.8267 80.4495 28.6776 79.8742 28.6776C79.3202 28.6776 78.8515 28.8203 78.468 29.1058C78.0887 29.3913 77.801 29.7898 77.605 30.3011C77.409 30.8125 77.311 31.4091 77.311 32.0909ZM86.5475 40.6818V27.1818H88.414V28.7734H88.5738C88.6846 28.5689 88.8444 28.3324 89.0532 28.0639C89.262 27.7955 89.5518 27.5611 89.9225 27.3608C90.2932 27.1562 90.7833 27.054 91.3927 27.054C92.1853 27.054 92.8927 27.2543 93.5148 27.6548C94.137 28.0554 94.6249 28.6328 94.9786 29.3871C95.3366 30.1413 95.5155 31.049 95.5155 32.1101C95.5155 33.1712 95.3387 34.081 94.985 34.8395C94.6313 35.5937 94.1455 36.1754 93.5276 36.5845C92.9097 36.9893 92.2045 37.1918 91.4118 37.1918C90.8153 37.1918 90.3273 37.0916 89.9481 36.8913C89.5731 36.6911 89.279 36.4567 89.066 36.1882C88.8529 35.9197 88.6888 35.6811 88.5738 35.4723H88.4587V40.6818H86.5475ZM88.4204 32.0909C88.4204 32.7812 88.5205 33.3864 88.7208 33.9062C88.9211 34.4261 89.2108 34.8331 89.5901 35.1271C89.9694 35.4169 90.4339 35.5618 90.9836 35.5618C91.5546 35.5618 92.0319 35.4105 92.4154 35.108C92.7989 34.8011 93.0887 34.3857 93.2847 33.8615C93.485 33.3374 93.5851 32.7472 93.5851 32.0909C93.5851 31.4432 93.4871 30.8615 93.2911 30.3459C93.0993 29.8303 92.8096 29.4233 92.4218 29.125C92.0383 28.8267 91.5589 28.6776 90.9836 28.6776C90.4296 28.6776 89.9608 28.8203 89.5773 29.1058C89.1981 29.3913 88.9104 29.7898 88.7144 30.3011C88.5184 30.8125 88.4204 31.4091 88.4204 32.0909ZM99.5681 23.9091V37H97.6569V23.9091H99.5681ZM106.371 37.1982C105.403 37.1982 104.57 36.9915 103.872 36.5781C103.177 36.1605 102.64 35.5746 102.261 34.8203C101.886 34.0618 101.698 33.1733 101.698 32.1548C101.698 31.1491 101.886 30.2628 102.261 29.4957C102.64 28.7287 103.168 28.13 103.846 27.6996C104.528 27.2692 105.325 27.054 106.237 27.054C106.791 27.054 107.328 27.1456 107.847 27.3288C108.367 27.5121 108.834 27.7997 109.247 28.1918C109.661 28.5838 109.987 29.093 110.225 29.7195C110.464 30.3416 110.583 31.098 110.583 31.9886V32.6662H102.778V31.2344H108.71C108.71 30.7315 108.608 30.2862 108.403 29.8984C108.199 29.5064 107.911 29.1974 107.541 28.9716C107.174 28.7457 106.744 28.6328 106.249 28.6328C105.712 28.6328 105.244 28.7649 104.843 29.0291C104.447 29.2891 104.14 29.63 103.923 30.0518C103.71 30.4695 103.603 30.9233 103.603 31.4134V32.532C103.603 33.1882 103.718 33.7464 103.948 34.2067C104.183 34.6669 104.509 35.0185 104.926 35.2614C105.344 35.5 105.832 35.6193 106.39 35.6193C106.752 35.6193 107.082 35.5682 107.381 35.4659C107.679 35.3594 107.937 35.2017 108.154 34.9929C108.372 34.7841 108.538 34.5263 108.653 34.2195L110.462 34.5455C110.317 35.0781 110.057 35.5447 109.682 35.9453C109.311 36.3416 108.845 36.6506 108.282 36.8722C107.724 37.0895 107.087 37.1982 106.371 37.1982ZM124.761 27.348C124.693 26.7429 124.411 26.2741 123.917 25.9418C123.423 25.6051 122.801 25.4368 122.051 25.4368C121.514 25.4368 121.049 25.522 120.657 25.6925C120.265 25.8587 119.96 26.0888 119.743 26.3828C119.53 26.6726 119.423 27.0028 119.423 27.3736C119.423 27.6847 119.496 27.9531 119.641 28.179C119.79 28.4048 119.984 28.5945 120.222 28.7479C120.465 28.897 120.725 29.0227 121.002 29.125C121.279 29.223 121.546 29.304 121.801 29.3679L123.08 29.7003C123.497 29.8026 123.926 29.9411 124.364 30.1158C124.803 30.2905 125.21 30.5206 125.585 30.8061C125.96 31.0916 126.263 31.4453 126.493 31.8672C126.727 32.2891 126.845 32.794 126.845 33.3821C126.845 34.1236 126.653 34.782 126.269 35.3572C125.89 35.9325 125.338 36.3864 124.614 36.7188C123.894 37.0511 123.022 37.2173 121.999 37.2173C121.019 37.2173 120.171 37.0618 119.455 36.7507C118.739 36.4396 118.179 35.9986 117.774 35.4276C117.369 34.8523 117.146 34.1705 117.103 33.3821H119.085C119.123 33.8551 119.276 34.2493 119.545 34.5646C119.818 34.8757 120.165 35.108 120.587 35.2614C121.013 35.4105 121.479 35.4851 121.987 35.4851C122.545 35.4851 123.041 35.3977 123.476 35.223C123.915 35.044 124.26 34.7969 124.511 34.4815C124.763 34.1619 124.889 33.7891 124.889 33.3629C124.889 32.9751 124.778 32.6577 124.556 32.4105C124.339 32.1634 124.043 31.9588 123.668 31.7969C123.297 31.6349 122.877 31.4922 122.408 31.3686L120.862 30.9467C119.813 30.6612 118.982 30.2415 118.369 29.6875C117.759 29.1335 117.455 28.4006 117.455 27.4886C117.455 26.7344 117.659 26.076 118.068 25.5135C118.477 24.951 119.031 24.5142 119.73 24.2031C120.429 23.8878 121.217 23.7301 122.095 23.7301C122.982 23.7301 123.764 23.8857 124.441 24.1967C125.123 24.5078 125.66 24.9361 126.052 25.4815C126.444 26.0227 126.649 26.6449 126.666 27.348H124.761ZM133.634 27.1818V28.7159H128.272V27.1818H133.634ZM129.71 24.8295H131.621V34.1172C131.621 34.4879 131.676 34.767 131.787 34.9545C131.898 35.1378 132.041 35.2635 132.215 35.3317C132.394 35.3956 132.588 35.4276 132.797 35.4276C132.951 35.4276 133.085 35.4169 133.2 35.3956C133.315 35.3743 133.404 35.3572 133.468 35.3445L133.813 36.9233C133.703 36.9659 133.545 37.0085 133.34 37.0511C133.136 37.098 132.88 37.1236 132.573 37.1278C132.071 37.1364 131.602 37.0469 131.167 36.8594C130.733 36.6719 130.381 36.3821 130.112 35.9901C129.844 35.598 129.71 35.1058 129.71 34.5135V24.8295ZM139.779 37.1982C138.858 37.1982 138.055 36.9872 137.369 36.5653C136.683 36.1435 136.15 35.5533 135.771 34.7947C135.392 34.0362 135.202 33.1499 135.202 32.1357C135.202 31.1172 135.392 30.2266 135.771 29.4638C136.15 28.701 136.683 28.1087 137.369 27.6868C138.055 27.2649 138.858 27.054 139.779 27.054C140.699 27.054 141.503 27.2649 142.189 27.6868C142.875 28.1087 143.407 28.701 143.787 29.4638C144.166 30.2266 144.356 31.1172 144.356 32.1357C144.356 33.1499 144.166 34.0362 143.787 34.7947C143.407 35.5533 142.875 36.1435 142.189 36.5653C141.503 36.9872 140.699 37.1982 139.779 37.1982ZM139.785 35.5938C140.382 35.5938 140.876 35.4361 141.268 35.1207C141.66 34.8054 141.95 34.3857 142.138 33.8615C142.329 33.3374 142.425 32.7599 142.425 32.1293C142.425 31.5028 142.329 30.9276 142.138 30.4034C141.95 29.875 141.66 29.451 141.268 29.1314C140.876 28.8118 140.382 28.652 139.785 28.652C139.184 28.652 138.686 28.8118 138.29 29.1314C137.897 29.451 137.606 29.875 137.414 30.4034C137.226 30.9276 137.133 31.5028 137.133 32.1293C137.133 32.7599 137.226 33.3374 137.414 33.8615C137.606 34.3857 137.897 34.8054 138.29 35.1207C138.686 35.4361 139.184 35.5938 139.785 35.5938ZM146.489 37V27.1818H148.336V28.7415H148.438C148.617 28.2131 148.933 27.7976 149.384 27.495C149.84 27.1882 150.356 27.0348 150.931 27.0348C151.051 27.0348 151.191 27.0391 151.353 27.0476C151.519 27.0561 151.649 27.0668 151.743 27.0795V28.9077C151.666 28.8864 151.53 28.8629 151.334 28.8374C151.138 28.8075 150.942 28.7926 150.746 28.7926C150.294 28.7926 149.892 28.8885 149.538 29.0803C149.188 29.2678 148.911 29.5298 148.707 29.8665C148.502 30.1989 148.4 30.5781 148.4 31.0043V37H146.489ZM157.277 37.1982C156.31 37.1982 155.477 36.9915 154.778 36.5781C154.083 36.1605 153.546 35.5746 153.167 34.8203C152.792 34.0618 152.604 33.1733 152.604 32.1548C152.604 31.1491 152.792 30.2628 153.167 29.4957C153.546 28.7287 154.075 28.13 154.752 27.6996C155.434 27.2692 156.231 27.054 157.143 27.054C157.697 27.054 158.234 27.1456 158.754 27.3288C159.274 27.5121 159.74 27.7997 160.153 28.1918C160.567 28.5838 160.893 29.093 161.131 29.7195C161.37 30.3416 161.489 31.098 161.489 31.9886V32.6662H153.685V31.2344H159.617C159.617 30.7315 159.514 30.2862 159.31 29.8984C159.105 29.5064 158.818 29.1974 158.447 28.9716C158.08 28.7457 157.65 28.6328 157.156 28.6328C156.619 28.6328 156.15 28.7649 155.749 29.0291C155.353 29.2891 155.046 29.63 154.829 30.0518C154.616 30.4695 154.509 30.9233 154.509 31.4134V32.532C154.509 33.1882 154.624 33.7464 154.854 34.2067C155.089 34.6669 155.415 35.0185 155.832 35.2614C156.25 35.5 156.738 35.6193 157.296 35.6193C157.658 35.6193 157.989 35.5682 158.287 35.4659C158.585 35.3594 158.843 35.2017 159.06 34.9929C159.278 34.7841 159.444 34.5263 159.559 34.2195L161.368 34.5455C161.223 35.0781 160.963 35.5447 160.588 35.9453C160.217 36.3416 159.751 36.6506 159.188 36.8722C158.63 37.0895 157.993 37.1982 157.277 37.1982Z" fill="white"/>
</svg>
