<svg width="20" height="21" viewBox="0 0 20 21" fill="none" xmlns="http://www.w3.org/2000/svg">
<path d="M9.92885 20.8542C15.4124 20.8542 19.8577 16.4089 19.8577 10.9253C19.8577 5.44176 15.4124 0.99646 9.92885 0.99646C4.4453 0.99646 0 5.44176 0 10.9253C0 16.4089 4.4453 20.8542 9.92885 20.8542Z" fill="#9DAFBD"/>
<path d="M10.7305 14.292C9.97989 14.234 9.66449 13.8618 9.07581 13.5044C8.75227 15.202 8.35688 16.8292 7.18573 17.6793C6.82378 15.1136 7.71634 13.1866 8.13086 11.1411C7.42431 9.9517 8.21581 7.55771 9.70608 8.14762C11.5402 8.87293 8.11811 12.5701 10.4155 13.0319C12.8139 13.514 13.793 8.87028 12.3055 7.35984C10.1565 5.17913 6.05015 7.31028 6.55511 10.432C6.67811 11.1952 7.46679 11.4269 6.87015 12.48C5.49475 12.1754 5.08449 11.0906 5.13723 9.64444C5.22236 7.27718 7.26431 5.61966 9.31245 5.39028C11.9027 5.10037 14.3339 6.34143 14.6694 8.77789C15.047 11.5278 13.5001 14.5059 10.7305 14.292V14.292Z" fill="white"/>
</svg>
