<svg width="34" height="36" viewBox="0 0 34 36" fill="none" xmlns="http://www.w3.org/2000/svg">
<path d="M15.9998 18.0002C20.6022 18.0002 24.3332 14.2692 24.3332 9.66683C24.3332 5.06446 20.6022 1.3335 15.9998 1.3335C11.3975 1.3335 7.6665 5.06446 7.6665 9.66683C7.6665 14.2692 11.3975 18.0002 15.9998 18.0002Z" stroke="white" stroke-width="2"/>
<path d="M22.6664 24.667H32.6664M24.3331 34.667H4.77644C4.30375 34.6671 3.83643 34.5667 3.40552 34.3724C2.9746 34.178 2.58994 33.8943 2.27707 33.54C1.96419 33.1857 1.73025 32.7688 1.59078 32.3172C1.45131 31.8655 1.40949 31.3894 1.46811 30.9203L2.11811 25.7137C2.26927 24.504 2.85714 23.3913 3.77116 22.5847C4.68519 21.7781 5.8624 21.3332 7.08144 21.3337H7.66644L24.3331 34.667ZM27.6664 19.667V29.667V19.667Z" stroke="white" stroke-width="2" stroke-linecap="round" stroke-linejoin="round"/>
</svg>
