<svg width="32" height="33" viewBox="0 0 32 33" fill="none" xmlns="http://www.w3.org/2000/svg">
<path d="M16.0003 21.8313C18.9458 21.8313 21.3337 19.4435 21.3337 16.498C21.3337 13.5525 18.9458 11.1647 16.0003 11.1647C13.0548 11.1647 10.667 13.5525 10.667 16.498C10.667 19.4435 13.0548 21.8313 16.0003 21.8313Z" fill="#5D5FEF"/>
<path d="M17.3337 5.92334V3.16467H14.667V5.92334C12.3207 6.22292 10.1403 7.2929 8.46775 8.96543C6.79522 10.638 5.72523 12.8184 5.42566 15.1647H2.66699V17.8313H5.42566C5.7248 20.1778 6.79464 22.3585 8.46725 24.0311C10.1399 25.7037 12.3206 26.7735 14.667 27.0727V29.8313H17.3337V27.0727C19.6802 26.7738 21.861 25.704 23.5336 24.0313C25.2063 22.3587 26.2761 20.1779 26.575 17.8313H29.3337V15.1647H26.575C26.2759 12.8182 25.206 10.6375 23.5334 8.96493C21.8608 7.29232 19.6801 6.22248 17.3337 5.92334ZM16.0003 24.498C11.5883 24.498 8.00033 20.91 8.00033 16.498C8.00033 12.086 11.5883 8.49801 16.0003 8.49801C20.4123 8.49801 24.0003 12.086 24.0003 16.498C24.0003 20.91 20.4123 24.498 16.0003 24.498Z" fill="#5D5FEF"/>
</svg>
