<svg width="22" height="32" viewBox="0 0 22 32" fill="none" xmlns="http://www.w3.org/2000/svg">
<path fill-rule="evenodd" clip-rule="evenodd" d="M10.7154 0C11.0185 0 11.3091 0.120399 11.5235 0.334712C11.7378 0.549024 11.8582 0.839694 11.8582 1.14278V28.0963L19.0485 20.9037C19.2631 20.6891 19.5541 20.5686 19.8576 20.5686C20.1611 20.5686 20.4521 20.6891 20.6667 20.9037C20.8813 21.1183 21.0018 21.4093 21.0018 21.7128C21.0018 22.0162 20.8813 22.3073 20.6667 22.5219L11.5245 31.6641C11.4183 31.7705 11.2922 31.8549 11.1534 31.9125C11.0145 31.9702 10.8657 31.9998 10.7154 31.9998C10.5651 31.9998 10.4162 31.9702 10.2774 31.9125C10.1386 31.8549 10.0125 31.7705 9.90631 31.6641L0.764089 22.5219C0.549506 22.3073 0.428955 22.0162 0.428955 21.7128C0.428955 21.4093 0.549506 21.1183 0.764089 20.9037C0.978672 20.6891 1.26971 20.5686 1.57318 20.5686C1.87664 20.5686 2.16768 20.6891 2.38226 20.9037L9.57262 28.0963V1.14278C9.57262 0.839694 9.69302 0.549024 9.90733 0.334712C10.1216 0.120399 10.4123 0 10.7154 0Z" fill="black"/>
</svg>
