<svg width="50" height="50" viewBox="0 0 50 50" fill="none" xmlns="http://www.w3.org/2000/svg">
<path fill-rule="evenodd" clip-rule="evenodd" d="M25 46.875C37.0812 46.875 46.875 37.0812 46.875 25C46.875 12.9188 37.0812 3.125 25 3.125C12.9188 3.125 3.125 12.9188 3.125 25C3.125 37.0812 12.9188 46.875 25 46.875ZM25 50C38.8071 50 50 38.8071 50 25C50 11.1929 38.8071 0 25 0C11.1929 0 0 11.1929 0 25C0 38.8071 11.1929 50 25 50Z" fill="white"/>
<path d="M24.0605 38.6564H26.0918V36.0939C30.3105 35.7189 32.6231 32.7814 32.6231 29.7501C32.6231 25.3439 29.2168 24.5001 26.0918 23.7501V17.0001C27.5918 17.3751 28.4668 18.5314 28.5918 19.7814H32.4043C32.123 16.2501 29.6855 14.2814 26.0918 13.9689V11.4376H24.0605V14.0001C20.1855 14.3439 17.498 16.7501 17.498 20.2501C17.498 24.6564 20.9355 25.5314 24.0605 26.3126V33.1876C22.3105 32.8751 21.4355 31.7189 21.3105 30.1564H17.498C17.498 33.6876 20.248 35.7814 24.0605 36.1251V38.6564ZM29.0293 29.9376C29.0293 31.5626 27.9668 32.8751 26.0918 33.1876V26.8439C27.7793 27.3751 29.0293 28.1564 29.0293 29.9376ZM21.123 20.0626C21.123 18.1564 22.3418 17.1251 24.0605 16.9064V23.2189C22.373 22.6876 21.123 21.8751 21.123 20.0626Z" fill="white"/>
</svg>
