<svg width="32" height="32" viewBox="0 0 32 32" fill="none" xmlns="http://www.w3.org/2000/svg">
<path d="M31.4284 1.37198C31.5011 1.19025 31.5189 0.99117 31.4796 0.799417C31.4403 0.607665 31.3455 0.431673 31.2071 0.29326C31.0687 0.154847 30.8927 0.0600998 30.7009 0.0207649C30.5092 -0.01857 30.3101 -0.000762977 30.1284 0.0719784L1.03437 11.71C0.778151 11.8125 0.555193 11.9838 0.390035 12.2049C0.224877 12.426 0.123923 12.6884 0.0982844 12.9632C0.0726454 13.238 0.123315 13.5145 0.244718 13.7624C0.36612 14.0102 0.553547 14.2198 0.786372 14.368L10.7764 20.724L13.8384 25.536C13.983 25.7543 14.2075 25.9072 14.4636 25.9618C14.7198 26.0164 14.9871 25.9683 15.2082 25.8279C15.4293 25.6875 15.5864 25.466 15.6459 25.211C15.7054 24.9559 15.6625 24.6877 15.5264 24.464L12.7744 20.14L27.7624 5.15198L23.9724 14.628C23.9203 14.7504 23.8932 14.8821 23.8926 15.0151C23.8921 15.1482 23.9181 15.28 23.9692 15.4029C24.0202 15.5258 24.0953 15.6373 24.19 15.7308C24.2846 15.8243 24.397 15.898 24.5206 15.9475C24.6441 15.997 24.7762 16.0213 24.9093 16.0191C25.0423 16.0169 25.1736 15.9882 25.2954 15.9346C25.4172 15.881 25.5271 15.8036 25.6186 15.707C25.7101 15.6104 25.7814 15.4965 25.8284 15.372L31.4284 1.37198ZM26.3484 3.73798L11.3604 18.726L2.68237 13.204L26.3484 3.73798Z" fill="#6A6A6A"/>
<path d="M24.5 32C26.3565 32 28.137 31.2625 29.4497 29.9497C30.7625 28.637 31.5 26.8565 31.5 25C31.5 23.1435 30.7625 21.363 29.4497 20.0503C28.137 18.7375 26.3565 18 24.5 18C22.6435 18 20.863 18.7375 19.5503 20.0503C18.2375 21.363 17.5 23.1435 17.5 25C17.5 26.8565 18.2375 28.637 19.5503 29.9497C20.863 31.2625 22.6435 32 24.5 32ZM25.5 22V25C25.5 25.2652 25.3946 25.5196 25.2071 25.7071C25.0196 25.8946 24.7652 26 24.5 26C24.2348 26 23.9804 25.8946 23.7929 25.7071C23.6054 25.5196 23.5 25.2652 23.5 25V22C23.5 21.7348 23.6054 21.4804 23.7929 21.2929C23.9804 21.1054 24.2348 21 24.5 21C24.7652 21 25.0196 21.1054 25.2071 21.2929C25.3946 21.4804 25.5 21.7348 25.5 22ZM25.5 28C25.5 28.2652 25.3946 28.5196 25.2071 28.7071C25.0196 28.8946 24.7652 29 24.5 29C24.2348 29 23.9804 28.8946 23.7929 28.7071C23.6054 28.5196 23.5 28.2652 23.5 28C23.5 27.7348 23.6054 27.4804 23.7929 27.2929C23.9804 27.1054 24.2348 27 24.5 27C24.7652 27 25.0196 27.1054 25.2071 27.2929C25.3946 27.4804 25.5 27.7348 25.5 28Z" fill="#6A6A6A"/>
</svg>
