<svg width="17" height="10" viewBox="0 0 17 10" fill="none" xmlns="http://www.w3.org/2000/svg">
<path d="M4.83317 9.16671C5.79314 9.16542 6.7233 8.83317 7.46683 8.22596C8.21036 7.61875 8.72177 6.77373 8.91484 5.83337H10.6665V7.50004H12.3332V5.83337H13.9998V8.33337H15.6665V5.83337H16.4998V4.16671H8.91484C8.72177 3.22635 8.21036 2.38133 7.46683 1.77412C6.7233 1.16691 5.79314 0.834657 4.83317 0.833374C2.53567 0.833374 0.666504 2.70254 0.666504 5.00004C0.666504 7.29754 2.53567 9.16671 4.83317 9.16671ZM4.83317 2.50004C6.2115 2.50004 7.33317 3.62171 7.33317 5.00004C7.33317 6.37837 6.2115 7.50004 4.83317 7.50004C3.45484 7.50004 2.33317 6.37837 2.33317 5.00004C2.33317 3.62171 3.45484 2.50004 4.83317 2.50004Z" fill="black"/>
</svg>
