<svg width="40" height="40" viewBox="0 0 40 40" fill="none" xmlns="http://www.w3.org/2000/svg">
<path d="M33.0778 14.9888C31.9435 14.9615 30.8267 14.7019 29.7967 14.2261C28.7666 13.7502 27.845 13.0682 27.0889 12.2222C27.4948 13.9489 27.259 15.7643 26.4256 17.3301C25.5922 18.896 24.2179 20.1054 22.5589 20.7331C20.8999 21.3608 19.0692 21.3639 17.4081 20.7419C15.7469 20.1199 14.3685 18.9152 13.5297 17.3523C12.6909 15.7893 12.449 13.9747 12.8489 12.2466C13.2488 10.5185 14.2634 8.99467 15.7036 7.95913C17.1437 6.92359 18.9112 6.44694 20.6768 6.61799C22.4423 6.78903 24.0854 7.59611 25.3 8.88884C24.8092 7.10827 24.9305 5.21447 25.6445 3.51106C23.6551 2.55028 21.4545 2.11004 19.2486 2.23156C17.0427 2.35308 14.9037 3.03237 13.0319 4.20585C11.1601 5.37934 9.61673 7.00862 8.54623 8.94116C7.47573 10.8737 6.91314 13.0463 6.91113 15.2555C6.91113 20.4444 9.82224 24.7888 11.9556 27.9555L12.3445 28.5333C14.467 31.6095 16.744 34.5763 19.1667 37.4222L20.0111 38.4111L20.8556 37.4222C23.278 34.576 25.5549 31.6093 27.6778 28.5333L28.0667 27.9444C30.1889 24.7777 33.1 20.4444 33.1 15.2555C33.0889 15.1666 33.0778 15.0777 33.0778 14.9888Z" fill="black"/>
<path d="M19.9999 17.9666C22.2888 17.9666 24.1444 16.1111 24.1444 13.8222C24.1444 11.5333 22.2888 9.67773 19.9999 9.67773C17.711 9.67773 15.8555 11.5333 15.8555 13.8222C15.8555 16.1111 17.711 17.9666 19.9999 17.9666Z" fill="black"/>
<path d="M33.3329 12.2222C36.4011 12.2222 38.8885 9.73489 38.8885 6.66664C38.8885 3.59839 36.4011 1.11108 33.3329 1.11108C30.2647 1.11108 27.7773 3.59839 27.7773 6.66664C27.7773 9.73489 30.2647 12.2222 33.3329 12.2222Z" fill="black"/>
</svg>
