<svg width="32" height="33" viewBox="0 0 32 33" fill="none" xmlns="http://www.w3.org/2000/svg">
<path d="M16.0003 19.1647C18.9417 19.1647 21.3337 16.7727 21.3337 13.8314C21.3337 10.89 18.9417 8.49805 16.0003 8.49805C13.059 8.49805 10.667 10.89 10.667 13.8314C10.667 16.7727 13.059 19.1647 16.0003 19.1647ZM16.0003 11.1647C17.471 11.1647 18.667 12.3607 18.667 13.8314C18.667 15.302 17.471 16.498 16.0003 16.498C14.5297 16.498 13.3337 15.302 13.3337 13.8314C13.3337 12.3607 14.5297 11.1647 16.0003 11.1647Z" fill="black"/>
<path d="M15.2265 29.5833C15.4521 29.7445 15.7225 29.8311 15.9998 29.8311C16.2771 29.8311 16.5475 29.7445 16.7731 29.5833C17.1785 29.2967 26.7051 22.418 26.6665 13.8313C26.6665 7.95001 21.8811 3.16467 15.9998 3.16467C10.1185 3.16467 5.33313 7.95001 5.33313 13.8247C5.29446 22.418 14.8211 29.2967 15.2265 29.5833ZM15.9998 5.83134C20.4118 5.83134 23.9998 9.41934 23.9998 13.838C24.0278 19.7553 18.1491 25.0687 15.9998 26.8113C13.8518 25.0673 7.97179 19.7527 7.99979 13.8313C7.99979 9.41934 11.5878 5.83134 15.9998 5.83134Z" fill="black"/>
</svg>
