<svg width="50" height="50" viewBox="0 0 50 50" fill="none" xmlns="http://www.w3.org/2000/svg">
<path d="M25.9219 31.8906L31.5156 37.5L25.9062 43.1094L28.125 45.3125L35.9375 37.5L28.125 29.6875L25.9219 31.8906ZM36.8594 31.8906L42.4531 37.5L36.8438 43.1094L39.0625 45.3125L46.875 37.5L39.0625 29.6875L36.8594 31.8906Z" fill="white"/>
<path d="M21.875 35.9375H6.25V12.3594L24.1094 24.7188C24.3709 24.9002 24.6817 24.9974 25 24.9974C25.3183 24.9974 25.6291 24.9002 25.8906 24.7188L43.75 12.3594V26.5625H46.875V10.9375C46.875 10.1087 46.5458 9.31384 45.9597 8.72779C45.3737 8.14174 44.5788 7.8125 43.75 7.8125H6.25C5.4212 7.8125 4.62634 8.14174 4.04029 8.72779C3.45424 9.31384 3.125 10.1087 3.125 10.9375V35.9375C3.125 36.7663 3.45424 37.5612 4.04029 38.1472C4.62634 38.7333 5.4212 39.0625 6.25 39.0625H21.875V35.9375ZM40.3125 10.9375L25 21.5312L9.6875 10.9375H40.3125Z" fill="white"/>
</svg>
