<svg width="20" height="20" viewBox="0 0 20 20" fill="none" xmlns="http://www.w3.org/2000/svg">
<path d="M6.29285 6.29302C6.17531 6.41047 6.08889 6.55536 6.0414 6.71459C5.99391 6.87382 5.98684 7.04237 6.02085 7.20502C6.04485 7.32002 6.63185 10.047 8.29185 11.707C9.95185 13.367 12.6788 13.954 12.7938 13.978L6.29285 6.29302ZM6.29285 6.29302L7.23229 5.35357M6.29285 6.29302L7.23229 5.35357M7.23229 5.35357L7.58585 5.00002L7.23229 4.64646L5.3534 2.76757L4.99985 2.41402L4.64629 2.76757L2.99485 4.41902C3.01485 5.64202 3.34085 9.92702 6.70685 13.293L7.23229 5.35357ZM15.353 10.6463L15.3532 10.6465L19.3532 14.6475L19.3536 14.6479C19.4 14.6942 19.4369 14.7493 19.462 14.8099C19.4871 14.8705 19.5 14.9354 19.5 15.001C19.5 15.0666 19.4871 15.1316 19.462 15.1922C19.4369 15.2528 19.4 15.3078 19.3536 15.3542L19.3533 15.3545L16.6413 18.0665C16.3558 18.3519 15.9835 18.506 15.5898 18.506H15.5661C14.182 18.4821 9.40329 18.1114 5.6464 14.3545C1.88595 10.594 1.51708 5.80987 1.49479 4.43224C1.48892 4.03659 1.6486 3.64437 1.9344 3.35857L4.6464 0.646572L4.6467 0.646271C4.69305 0.599844 4.74809 0.563012 4.80869 0.537882C4.86929 0.512752 4.93424 0.499817 4.99985 0.499817C5.06545 0.499817 5.1304 0.512752 5.191 0.537882C5.2516 0.563012 5.30664 0.599844 5.35299 0.646271L5.35329 0.646571L9.35329 4.64657L9.35359 4.64687C9.40002 4.69322 9.43685 4.74827 9.46198 4.80886C9.48711 4.86946 9.50005 4.93442 9.50005 5.00002C9.50005 5.06562 9.48711 5.13058 9.46198 5.19117C9.43685 5.25177 9.40002 5.30682 9.35359 5.35316L9.35329 5.35346L7.75929 6.94746L7.54862 7.15813L7.63363 7.44368C7.85641 8.19201 8.38441 9.67769 9.35329 10.6466C10.3222 11.6155 11.8079 12.1435 12.5562 12.3662L12.8417 12.4512L13.0524 12.2406L14.6464 10.6466L14.6467 10.6463C14.693 10.5998 14.7481 10.563 14.8087 10.5379C14.8693 10.5128 14.9342 10.4998 14.9998 10.4998C15.0654 10.4998 15.1304 10.5128 15.191 10.5379C15.2516 10.563 15.3066 10.5998 15.353 10.6463ZM15.5714 17.5049L15.7834 17.5085L15.9333 17.3587L17.9393 15.3537L18.293 15.0001L17.9394 14.6465L15.3534 12.0605L15 11.707L14.6464 12.0603L13.3524 13.3533L13.3508 13.3549C13.2928 13.4134 13.221 13.4564 13.1421 13.4798C13.0631 13.5033 12.9795 13.5065 12.899 13.4892L12.896 13.4886C12.8556 13.4801 12.1746 13.3344 11.3061 12.991C10.4313 12.6452 9.40621 12.1143 8.6454 11.3535C7.88459 10.5927 7.35367 9.56759 7.00783 8.69281C6.66443 7.82423 6.51873 7.14325 6.5103 7.10287L6.51027 7.1027C6.49326 7.02138 6.4968 6.9371 6.52054 6.85749C6.54429 6.77787 6.5875 6.70543 6.64627 6.64671L6.6464 6.64657L7.9394 5.35357L8.29295 5.00002L7.9394 4.64646L5.3534 2.06046L4.99985 1.70691L4.64629 2.06046L2.64129 4.06546L2.49145 4.21531L2.49491 4.42719C2.51567 5.69648 2.84985 10.1431 6.35329 13.6466C9.84542 17.1397 14.2766 17.4832 15.5714 17.5049Z" fill="#6A6A6A" stroke="#6A6A6A"/>
</svg>
