<svg width="21" height="22" viewBox="0 0 21 22" fill="none" xmlns="http://www.w3.org/2000/svg">
<path d="M0.744629 1.38859V19.8105C0.744752 19.8504 0.756673 19.8895 0.778896 19.9227C0.801119 19.9559 0.832655 19.9818 0.86955 19.9972C0.906444 20.0126 0.947056 20.0167 0.98629 20.0091C1.02552 20.0015 1.06164 19.9824 1.0901 19.9544L10.6821 10.6L1.0901 1.24468C1.06164 1.21662 1.02552 1.19759 0.98629 1.18997C0.947056 1.18235 0.906444 1.18648 0.86955 1.20185C0.832655 1.21722 0.801119 1.24314 0.778896 1.27636C0.756673 1.30958 0.744752 1.34862 0.744629 1.38859ZM14.704 6.75624L2.67682 0.129993L2.66932 0.125775C2.46213 0.0132745 2.26525 0.293587 2.43494 0.456712L11.8629 9.47171L14.704 6.75624ZM2.43588 20.7433C2.26525 20.9064 2.46213 21.1867 2.67025 21.0742L2.67775 21.07L14.704 14.4437L11.8629 11.7273L2.43588 20.7433ZM19.5593 9.42812L16.2007 7.57843L13.0428 10.6L16.2007 13.6201L19.5593 11.7719C20.4729 11.267 20.4729 9.93296 19.5593 9.42812Z" fill="white"/>
</svg>
