<svg width="191" height="60" viewBox="0 0 191 60" fill="none" xmlns="http://www.w3.org/2000/svg">
<rect x="0.0498047" width="190" height="60" rx="8" fill="black"/>
<path d="M36.7998 20.7887V39.2106C36.7999 39.2506 36.8118 39.2896 36.8341 39.3228C36.8563 39.3561 36.8878 39.382 36.9247 39.3973C36.9616 39.4127 37.0022 39.4168 37.0415 39.4092C37.0807 39.4016 37.1168 39.3826 37.1453 39.3545L46.7373 30.0001L37.1453 20.6448C37.1168 20.6168 37.0807 20.5977 37.0415 20.5901C37.0022 20.5825 36.9616 20.5866 36.9247 20.602C36.8878 20.6174 36.8563 20.6433 36.8341 20.6765C36.8118 20.7097 36.7999 20.7488 36.7998 20.7887ZM50.7592 26.1564L38.732 19.5301L38.7245 19.5259C38.5173 19.4134 38.3204 19.6937 38.4901 19.8569L47.9181 28.8719L50.7592 26.1564ZM38.4911 40.1434C38.3204 40.3065 38.5173 40.5869 38.7254 40.4744L38.7329 40.4701L50.7592 33.8439L47.9181 31.1275L38.4911 40.1434ZM55.6145 28.8283L52.2559 26.9786L49.0979 30.0001L52.2559 33.0203L55.6145 31.172C56.5281 30.6672 56.5281 29.3331 55.6145 28.8283Z" fill="white"/>
<path d="M69.988 37V23.9091H74.6542C75.6727 23.9091 76.5164 24.0945 77.1855 24.4652C77.8545 24.8359 78.3552 25.343 78.6876 25.9865C79.02 26.6257 79.1862 27.3459 79.1862 28.147C79.1862 28.9524 79.0178 29.6768 78.6812 30.3203C78.3488 30.9595 77.846 31.4666 77.1727 31.8416C76.5036 32.2124 75.662 32.3977 74.6478 32.3977H71.439V30.723H74.4688C75.1123 30.723 75.6343 30.6122 76.0349 30.3906C76.4355 30.1648 76.7295 29.858 76.917 29.4702C77.1045 29.0824 77.1982 28.6413 77.1982 28.147C77.1982 27.6527 77.1045 27.2138 76.917 26.8303C76.7295 26.4467 76.4333 26.1463 76.0285 25.929C75.6279 25.7116 75.0995 25.603 74.4433 25.603H71.9632V37H69.988ZM83.2595 23.9091V37H81.3483V23.9091H83.2595ZM88.6879 37.2173C88.0658 37.2173 87.5033 37.1023 87.0004 36.8722C86.4976 36.6378 86.0992 36.299 85.8051 35.8558C85.5154 35.4126 85.3705 34.8693 85.3705 34.2259C85.3705 33.6719 85.477 33.2159 85.6901 32.858C85.9031 32.5 86.1908 32.2166 86.553 32.0078C86.9152 31.799 87.32 31.6413 87.7675 31.5348C88.2149 31.4283 88.6709 31.3473 89.1354 31.2919C89.7235 31.2237 90.2007 31.1683 90.5672 31.1257C90.9337 31.0788 91.2 31.0043 91.3662 30.902C91.5324 30.7997 91.6155 30.6335 91.6155 30.4034V30.3587C91.6155 29.8004 91.4578 29.3679 91.1425 29.0611C90.8314 28.7543 90.3669 28.6009 89.749 28.6009C89.1056 28.6009 88.5985 28.7436 88.2277 29.0291C87.8612 29.3104 87.6077 29.6236 87.4671 29.9688L85.6709 29.5597C85.884 28.9631 86.195 28.4815 86.6041 28.1151C87.0175 27.7443 87.4926 27.4759 88.0296 27.3097C88.5665 27.1392 89.1311 27.054 89.7235 27.054C90.1155 27.054 90.531 27.1009 90.9699 27.1946C91.4131 27.2841 91.8264 27.4503 92.21 27.6932C92.5977 27.9361 92.9152 28.2834 93.1624 28.7351C93.4095 29.1825 93.5331 29.7642 93.5331 30.4801V37H91.6666V35.6577H91.5899C91.4664 35.9048 91.281 36.1477 91.0338 36.3864C90.7867 36.625 90.4692 36.8232 90.0814 36.9808C89.6936 37.1385 89.2291 37.2173 88.6879 37.2173ZM89.1034 35.6832C89.6318 35.6832 90.0835 35.5788 90.4585 35.37C90.8378 35.1612 91.1254 34.8885 91.3215 34.5518C91.5218 34.2109 91.6219 33.8466 91.6219 33.4588V32.1932C91.5537 32.2614 91.4216 32.3253 91.2256 32.3849C91.0338 32.4403 90.8144 32.4893 90.5672 32.532C90.32 32.5703 90.0793 32.6065 89.8449 32.6406C89.6105 32.6705 89.4145 32.696 89.2568 32.7173C88.8861 32.7642 88.5473 32.843 88.2405 32.9538C87.9379 33.0646 87.695 33.2244 87.5118 33.4332C87.3328 33.6378 87.2433 33.9105 87.2433 34.2514C87.2433 34.7244 87.4181 35.0824 87.7675 35.3253C88.1169 35.5639 88.5622 35.6832 89.1034 35.6832ZM96.9353 40.6818C96.6498 40.6818 96.3898 40.6584 96.1555 40.6115C95.9211 40.5689 95.7464 40.522 95.6313 40.4709L96.0915 38.9048C96.441 38.9986 96.752 39.0391 97.0248 39.0263C97.2975 39.0135 97.5383 38.9112 97.7471 38.7195C97.9601 38.5277 98.1476 38.2145 98.3096 37.7798L98.5461 37.1278L94.9537 27.1818H96.9992L99.4857 34.8011H99.588L102.074 27.1818H104.126L100.08 38.3104C99.8927 38.8217 99.654 39.2543 99.3643 39.608C99.0745 39.9659 98.7293 40.2344 98.3287 40.4134C97.9282 40.5923 97.4637 40.6818 96.9353 40.6818ZM117.979 27.348C117.911 26.7429 117.63 26.2741 117.136 25.9418C116.641 25.6051 116.019 25.4368 115.269 25.4368C114.732 25.4368 114.268 25.522 113.876 25.6925C113.484 25.8587 113.179 26.0888 112.962 26.3828C112.749 26.6726 112.642 27.0028 112.642 27.3736C112.642 27.6847 112.715 27.9531 112.859 28.179C113.009 28.4048 113.203 28.5945 113.441 28.7479C113.684 28.897 113.944 29.0227 114.221 29.125C114.498 29.223 114.764 29.304 115.02 29.3679L116.298 29.7003C116.716 29.8026 117.144 29.9411 117.583 30.1158C118.022 30.2905 118.429 30.5206 118.804 30.8061C119.179 31.0916 119.482 31.4453 119.712 31.8672C119.946 32.2891 120.063 32.794 120.063 33.3821C120.063 34.1236 119.872 34.782 119.488 35.3572C119.109 35.9325 118.557 36.3864 117.832 36.7188C117.112 37.0511 116.241 37.2173 115.218 37.2173C114.238 37.2173 113.39 37.0618 112.674 36.7507C111.958 36.4396 111.398 35.9986 110.993 35.4276C110.588 34.8523 110.364 34.1705 110.322 33.3821H112.303C112.342 33.8551 112.495 34.2493 112.764 34.5646C113.036 34.8757 113.384 35.108 113.805 35.2614C114.232 35.4105 114.698 35.4851 115.205 35.4851C115.764 35.4851 116.26 35.3977 116.695 35.223C117.134 35.044 117.479 34.7969 117.73 34.4815C117.982 34.1619 118.107 33.7891 118.107 33.3629C118.107 32.9751 117.997 32.6577 117.775 32.4105C117.558 32.1634 117.261 31.9588 116.886 31.7969C116.516 31.6349 116.096 31.4922 115.627 31.3686L114.08 30.9467C113.032 30.6612 112.201 30.2415 111.587 29.6875C110.978 29.1335 110.673 28.4006 110.673 27.4886C110.673 26.7344 110.878 26.076 111.287 25.5135C111.696 24.951 112.25 24.5142 112.949 24.2031C113.648 23.8878 114.436 23.7301 115.314 23.7301C116.2 23.7301 116.982 23.8857 117.66 24.1967C118.342 24.5078 118.879 24.9361 119.271 25.4815C119.663 26.0227 119.867 26.6449 119.884 27.348H117.979ZM126.853 27.1818V28.7159H121.49V27.1818H126.853ZM122.929 24.8295H124.84V34.1172C124.84 34.4879 124.895 34.767 125.006 34.9545C125.117 35.1378 125.259 35.2635 125.434 35.3317C125.613 35.3956 125.807 35.4276 126.016 35.4276C126.169 35.4276 126.304 35.4169 126.419 35.3956C126.534 35.3743 126.623 35.3572 126.687 35.3445L127.032 36.9233C126.921 36.9659 126.764 37.0085 126.559 37.0511C126.355 37.098 126.099 37.1236 125.792 37.1278C125.289 37.1364 124.821 37.0469 124.386 36.8594C123.951 36.6719 123.6 36.3821 123.331 35.9901C123.063 35.598 122.929 35.1058 122.929 34.5135V24.8295ZM132.998 37.1982C132.077 37.1982 131.274 36.9872 130.588 36.5653C129.902 36.1435 129.369 35.5533 128.99 34.7947C128.611 34.0362 128.421 33.1499 128.421 32.1357C128.421 31.1172 128.611 30.2266 128.99 29.4638C129.369 28.701 129.902 28.1087 130.588 27.6868C131.274 27.2649 132.077 27.054 132.998 27.054C133.918 27.054 134.721 27.2649 135.407 27.6868C136.093 28.1087 136.626 28.701 137.005 29.4638C137.385 30.2266 137.574 31.1172 137.574 32.1357C137.574 33.1499 137.385 34.0362 137.005 34.7947C136.626 35.5533 136.093 36.1435 135.407 36.5653C134.721 36.9872 133.918 37.1982 132.998 37.1982ZM133.004 35.5938C133.601 35.5938 134.095 35.4361 134.487 35.1207C134.879 34.8054 135.169 34.3857 135.356 33.8615C135.548 33.3374 135.644 32.7599 135.644 32.1293C135.644 31.5028 135.548 30.9276 135.356 30.4034C135.169 29.875 134.879 29.451 134.487 29.1314C134.095 28.8118 133.601 28.652 133.004 28.652C132.403 28.652 131.905 28.8118 131.508 29.1314C131.116 29.451 130.824 29.875 130.633 30.4034C130.445 30.9276 130.351 31.5028 130.351 32.1293C130.351 32.7599 130.445 33.3374 130.633 33.8615C130.824 34.3857 131.116 34.8054 131.508 35.1207C131.905 35.4361 132.403 35.5938 133.004 35.5938ZM139.708 37V27.1818H141.555V28.7415H141.657C141.836 28.2131 142.152 27.7976 142.603 27.495C143.059 27.1882 143.575 27.0348 144.15 27.0348C144.269 27.0348 144.41 27.0391 144.572 27.0476C144.738 27.0561 144.868 27.0668 144.962 27.0795V28.9077C144.885 28.8864 144.749 28.8629 144.553 28.8374C144.357 28.8075 144.161 28.7926 143.965 28.7926C143.513 28.7926 143.11 28.8885 142.757 29.0803C142.407 29.2678 142.13 29.5298 141.926 29.8665C141.721 30.1989 141.619 30.5781 141.619 31.0043V37H139.708ZM150.496 37.1982C149.528 37.1982 148.695 36.9915 147.997 36.5781C147.302 36.1605 146.765 35.5746 146.386 34.8203C146.011 34.0618 145.823 33.1733 145.823 32.1548C145.823 31.1491 146.011 30.2628 146.386 29.4957C146.765 28.7287 147.293 28.13 147.971 27.6996C148.653 27.2692 149.45 27.054 150.362 27.054C150.916 27.054 151.453 27.1456 151.972 27.3288C152.492 27.5121 152.959 27.7997 153.372 28.1918C153.786 28.5838 154.112 29.093 154.35 29.7195C154.589 30.3416 154.708 31.098 154.708 31.9886V32.6662H146.903V31.2344H152.835C152.835 30.7315 152.733 30.2862 152.528 29.8984C152.324 29.5064 152.036 29.1974 151.666 28.9716C151.299 28.7457 150.869 28.6328 150.374 28.6328C149.837 28.6328 149.369 28.7649 148.968 29.0291C148.572 29.2891 148.265 29.63 148.048 30.0518C147.835 30.4695 147.728 30.9233 147.728 31.4134V32.532C147.728 33.1882 147.843 33.7464 148.073 34.2067C148.308 34.6669 148.634 35.0185 149.051 35.2614C149.469 35.5 149.957 35.6193 150.515 35.6193C150.877 35.6193 151.207 35.5682 151.506 35.4659C151.804 35.3594 152.062 35.2017 152.279 34.9929C152.497 34.7841 152.663 34.5263 152.778 34.2195L154.587 34.5455C154.442 35.0781 154.182 35.5447 153.807 35.9453C153.436 36.3416 152.97 36.6506 152.407 36.8722C151.849 37.0895 151.212 37.1982 150.496 37.1982Z" fill="white"/>
</svg>
