<svg width="44" height="44" viewBox="0 0 44 44" fill="none" xmlns="http://www.w3.org/2000/svg">
<path d="M39.1875 36.0625H29.8125C28.5693 36.0625 27.377 36.5564 26.4979 37.4354C25.6189 38.3145 25.125 39.5068 25.125 40.75V43.875H28.25V40.75C28.25 40.3356 28.4146 39.9382 28.7076 39.6451C29.0007 39.3521 29.3981 39.1875 29.8125 39.1875H39.1875C39.6019 39.1875 39.9993 39.3521 40.2924 39.6451C40.5854 39.9382 40.75 40.3356 40.75 40.75V43.875H43.875V40.75C43.875 39.5068 43.3811 38.3145 42.5021 37.4354C41.623 36.5564 40.4307 36.0625 39.1875 36.0625ZM28.25 28.25C28.25 29.4861 28.6166 30.6945 29.3033 31.7223C29.9901 32.7501 30.9662 33.5512 32.1082 34.0243C33.2503 34.4973 34.5069 34.6211 35.7193 34.3799C36.9317 34.1388 38.0453 33.5435 38.9194 32.6694C39.7935 31.7953 40.3888 30.6817 40.6299 29.4693C40.8711 28.2569 40.7473 27.0003 40.2742 25.8582C39.8012 24.7162 39.0001 23.7401 37.9723 23.0533C36.9445 22.3666 35.7361 22 34.5 22C32.8424 22 31.2527 22.6585 30.0806 23.8306C28.9085 25.0027 28.25 26.5924 28.25 28.25ZM37.625 28.25C37.625 28.8681 37.4417 29.4723 37.0983 29.9862C36.755 30.5001 36.2669 30.9006 35.6959 31.1371C35.1249 31.3737 34.4965 31.4355 33.8903 31.315C33.2842 31.1944 32.7273 30.8968 32.2903 30.4597C31.8533 30.0227 31.5556 29.4659 31.435 28.8597C31.3145 28.2535 31.3764 27.6251 31.6129 27.0541C31.8494 26.4831 32.2499 25.995 32.7638 25.6517C33.2777 25.3083 33.8819 25.125 34.5 25.125C35.3288 25.125 36.1237 25.4542 36.7097 26.0403C37.2958 26.6263 37.625 27.4212 37.625 28.25ZM6.375 29.8125V28.25H3.25V29.8125C3.25 32.7133 4.40234 35.4953 6.45352 37.5465C8.5047 39.5977 11.2867 40.75 14.1875 40.75H18.875V37.625H14.1875C12.1155 37.625 10.1284 36.8019 8.66323 35.3368C7.1981 33.8716 6.375 31.8845 6.375 29.8125ZM26.6875 12.625H37.625V15.75H26.6875V12.625ZM26.6875 6.375H42.3125V9.5H26.6875V6.375ZM26.6875 0.125003H42.3125V3.25H26.6875V0.125003ZM14.1875 14.1875H4.8125C3.5693 14.1875 2.37701 14.6814 1.49794 15.5604C0.61886 16.4395 0.125 17.6318 0.125 18.875V22H3.25V18.875C3.25 18.4606 3.41462 18.0632 3.70765 17.7701C4.00067 17.4771 4.3981 17.3125 4.8125 17.3125H14.1875C14.6019 17.3125 14.9993 17.4771 15.2924 17.7701C15.5854 18.0632 15.75 18.4606 15.75 18.875V22H18.875V18.875C18.875 17.6318 18.3811 16.4395 17.5021 15.5604C16.623 14.6814 15.4307 14.1875 14.1875 14.1875V14.1875ZM9.5 12.625C10.7361 12.625 11.9445 12.2584 12.9723 11.5717C14.0001 10.8849 14.8012 9.90881 15.2742 8.76677C15.7473 7.62474 15.8711 6.36807 15.6299 5.15569C15.3888 3.94331 14.7935 2.82966 13.9194 1.95559C13.0453 1.08151 11.9317 0.486252 10.7193 0.245095C9.50693 0.00393718 8.25027 0.127708 7.10823 0.600756C5.96619 1.0738 4.99007 1.87488 4.30331 2.90269C3.61656 3.9305 3.25 5.13887 3.25 6.375C3.25 8.03261 3.90848 9.62232 5.08058 10.7944C6.25268 11.9665 7.8424 12.625 9.5 12.625ZM9.5 3.25C10.1181 3.25 10.7223 3.43328 11.2362 3.77666C11.7501 4.12004 12.1506 4.6081 12.3871 5.17912C12.6236 5.75014 12.6855 6.37847 12.565 6.98466C12.4444 7.59085 12.1467 8.14767 11.7097 8.58471C11.2727 9.02175 10.7158 9.31938 10.1097 9.43996C9.50347 9.56054 8.87513 9.49865 8.30411 9.26213C7.73309 9.0256 7.24504 8.62506 6.90166 8.11116C6.55828 7.59726 6.375 6.99307 6.375 6.375C6.375 5.5462 6.70424 4.75134 7.29029 4.16529C7.87634 3.57924 8.6712 3.25 9.5 3.25V3.25Z" fill="white"/>
</svg>
