<svg width="24" height="30" viewBox="0 0 24 30" fill="none" xmlns="http://www.w3.org/2000/svg">
<path d="M15.9992 24.3332C15.9992 25.3941 15.5777 26.4115 14.8276 27.1616C14.0775 27.9118 13.06 28.3332 11.9992 28.3332C10.9383 28.3332 9.92089 27.9118 9.17074 27.1616C8.4206 26.4115 7.99917 25.3941 7.99917 24.3332M12.9605 5.67053L11.0058 5.66653C6.54717 5.65586 2.6765 9.27853 2.64584 13.6665V18.7199C2.64584 19.7732 2.5125 20.8012 1.93784 21.6772L1.55517 22.2612C0.972503 23.1465 1.59917 24.3332 2.64584 24.3332H21.3525C22.3992 24.3332 23.0245 23.1465 22.4432 22.2612L22.0605 21.6772C21.4872 20.8012 21.3525 19.7719 21.3525 18.7185V13.6679C21.2992 9.27853 17.4192 5.68119 12.9605 5.67053V5.67053Z" stroke="black" stroke-width="2" stroke-linecap="round" stroke-linejoin="round"/>
<path d="M11.9987 1.6665C12.7059 1.6665 13.3842 1.94746 13.8843 2.44755C14.3844 2.94765 14.6654 3.62593 14.6654 4.33317V5.6665H9.33203V4.33317C9.33203 3.62593 9.61298 2.94765 10.1131 2.44755C10.6132 1.94746 11.2915 1.6665 11.9987 1.6665Z" stroke="black" stroke-width="2" stroke-linecap="round" stroke-linejoin="round"/>
</svg>
