<svg width="30" height="22" viewBox="0 0 30 22" fill="none" xmlns="http://www.w3.org/2000/svg">
<path d="M27.444 0.333496H2.55512C2.08363 0.333496 1.63144 0.520797 1.29804 0.854195C0.964645 1.18759 0.777344 1.63978 0.777344 2.11127V19.889C0.777344 20.3605 0.964645 20.8127 1.29804 21.1461C1.63144 21.4795 2.08363 21.6668 2.55512 21.6668H27.444C27.9155 21.6668 28.3677 21.4795 28.7011 21.1461C29.0345 20.8127 29.2218 20.3605 29.2218 19.889V2.11127C29.2218 1.63978 29.0345 1.18759 28.7011 0.854195C28.3677 0.520797 27.9155 0.333496 27.444 0.333496ZM27.444 2.11127V12.7779H2.55512V2.11127H27.444ZM2.55512 19.889V16.3335H27.444V19.889H2.55512Z" fill="black"/>
</svg>
