<svg width="21" height="32" viewBox="0 0 21 32" fill="none" xmlns="http://www.w3.org/2000/svg">
<path fill-rule="evenodd" clip-rule="evenodd" d="M10.7136 31.9999C10.4105 31.9999 10.1198 31.8795 9.90549 31.6652C9.69118 31.4509 9.57078 31.1602 9.57078 30.8571V3.90355L2.38043 11.0962C2.16584 11.3108 1.87481 11.4313 1.57134 11.4313C1.26787 11.4313 0.976837 11.3108 0.762255 11.0962C0.54767 10.8816 0.42712 10.5906 0.42712 10.2871C0.42712 9.98364 0.54767 9.6926 0.762255 9.47802L9.90447 0.3358C10.0106 0.229378 10.1367 0.144943 10.2756 0.0873318C10.4144 0.0297222 10.5632 6.67572e-05 10.7136 6.67572e-05C10.8639 6.67572e-05 11.0127 0.0297222 11.1515 0.0873318C11.2904 0.144943 11.4165 0.229378 11.5226 0.3358L20.6649 9.47802C20.8794 9.6926 21 9.98364 21 10.2871C21 10.5906 20.8794 10.8816 20.6649 11.0962C20.4503 11.3108 20.1592 11.4313 19.8558 11.4313C19.5523 11.4313 19.2613 11.3108 19.0467 11.0962L11.8563 3.90355V30.8571C11.8563 31.1602 11.7359 31.4509 11.5216 31.6652C11.3073 31.8795 11.0166 31.9999 10.7136 31.9999Z" fill="black"/>
</svg>
