<svg width="26" height="20" viewBox="0 0 26 20" fill="none" xmlns="http://www.w3.org/2000/svg">
<path fill-rule="evenodd" clip-rule="evenodd" d="M2.5 4.88889C2.5 2.35284 4.48924 0.25 7 0.25C9.04757 0.25 10.7483 1.64854 11.3061 3.54004C11.8358 3.35222 12.4057 3.25 13 3.25C13.5943 3.25 14.1642 3.35222 14.6939 3.54004C15.2517 1.64854 16.9524 0.25 19 0.25C21.5108 0.25 23.5 2.35284 23.5 4.88889C23.5 6.39833 22.7953 7.7543 21.6954 8.60477C24.0909 9.68308 25.75 12.1541 25.75 15H24.25C24.25 11.9518 21.874 9.52778 19 9.52778V8.02778C20.6314 8.02778 22 6.64839 22 4.88889C22 3.12939 20.6314 1.75 19 1.75C17.5641 1.75 16.3317 2.81866 16.057 4.27456C17.3139 5.22325 18.125 6.74135 18.125 8.44444C18.125 10.2092 17.2542 11.7753 15.9188 12.7151C18.7566 13.8859 20.75 16.7125 20.75 20H19.25C19.25 16.4757 16.4407 13.6389 13 13.6389C9.55931 13.6389 6.75 16.4757 6.75 20H5.25C5.25 16.7125 7.2434 13.8859 10.0812 12.7151C8.74583 11.7753 7.875 10.2092 7.875 8.44444C7.875 6.74135 8.68607 5.22325 9.94296 4.27456C9.66828 2.81866 8.43592 1.75 7 1.75C5.36862 1.75 4 3.12939 4 4.88889C4 6.64839 5.36862 8.02778 7 8.02778V9.52778C4.12598 9.52778 1.75 11.9518 1.75 15H0.25C0.25 12.1541 1.90913 9.68309 4.30463 8.60477C3.2047 7.7543 2.5 6.39833 2.5 4.88889ZM13 4.75C11.0091 4.75 9.375 6.39288 9.375 8.44444C9.375 10.496 11.0091 12.1389 13 12.1389C14.9909 12.1389 16.625 10.496 16.625 8.44444C16.625 6.39288 14.9909 4.75 13 4.75Z" fill="#FCBF07"/>
</svg>
