<svg width="26" height="30" viewBox="0 0 26 30" fill="none" xmlns="http://www.w3.org/2000/svg">
<path d="M13 29.9998C12.8229 29.9999 12.649 29.953 12.496 29.8638L0.496 22.8638C0.345022 22.7757 0.219776 22.6496 0.132747 22.498C0.0457184 22.3464 -5.17539e-05 22.1746 4.39156e-08 21.9998V7.99981C-5.17539e-05 7.82501 0.0457184 7.65324 0.132747 7.50164C0.219776 7.35005 0.345022 7.22391 0.496 7.13581L12.496 0.135808C12.649 0.046547 12.8229 -0.000488281 13 -0.000488281C13.1771 -0.000488281 13.351 0.046547 13.504 0.135808L25.504 7.13581L24.496 8.86381L13 2.15781L2 8.57381V21.4258L13 27.8428L24 21.4258V13.9998H26V21.9998C26.0001 22.1746 25.9543 22.3464 25.8673 22.498C25.7802 22.6496 25.655 22.7757 25.504 22.8638L13.504 29.8638C13.351 29.953 13.1771 29.9999 13 29.9998Z" fill="#34A853"/>
</svg>
