<svg width="33" height="32" viewBox="0 0 33 32" fill="none" xmlns="http://www.w3.org/2000/svg">
<path d="M16.667 2C8.93574 2 2.66699 8.26875 2.66699 16C2.66699 23.7313 8.93574 30 16.667 30C24.3982 30 30.667 23.7313 30.667 16C30.667 8.26875 24.3982 2 16.667 2ZM16.667 27.625C10.2482 27.625 5.04199 22.4188 5.04199 16C5.04199 9.58125 10.2482 4.375 16.667 4.375C23.0857 4.375 28.292 9.58125 28.292 16C28.292 22.4188 23.0857 27.625 16.667 27.625Z" fill="#C5221F"/>
<path d="M15.167 10.5C15.167 10.8978 15.325 11.2794 15.6063 11.5607C15.8876 11.842 16.2692 12 16.667 12C17.0648 12 17.4463 11.842 17.7277 11.5607C18.009 11.2794 18.167 10.8978 18.167 10.5C18.167 10.1022 18.009 9.72064 17.7277 9.43934C17.4463 9.15804 17.0648 9 16.667 9C16.2692 9 15.8876 9.15804 15.6063 9.43934C15.325 9.72064 15.167 10.1022 15.167 10.5ZM17.417 14H15.917C15.7795 14 15.667 14.1125 15.667 14.25V22.75C15.667 22.8875 15.7795 23 15.917 23H17.417C17.5545 23 17.667 22.8875 17.667 22.75V14.25C17.667 14.1125 17.5545 14 17.417 14Z" fill="#C5221F"/>
</svg>
